<svg id="Group_35808" data-name="Group 35808" xmlns="http://www.w3.org/2000/svg" xmlns:xlink="http://www.w3.org/1999/xlink" width="102.214" height="33.252" viewBox="0 0 102.214 33.252">
  <defs>
    <clipPath id="clip-path">
      <rect id="Rectangle_1676" data-name="Rectangle 1676" width="102.214" height="33.252" fill="none"/>
    </clipPath>
    <clipPath id="clip-path-3">
      <rect id="Rectangle_1674" data-name="Rectangle 1674" width="61.869" height="10.017" fill="none"/>
    </clipPath>
  </defs>
  <g id="Group_35704" data-name="Group 35704" clip-path="url(#clip-path)">
    <g id="Group_35703" data-name="Group 35703" transform="translate(0 0)">
      <g id="Group_35702" data-name="Group 35702" clip-path="url(#clip-path)">
        <path id="Path_5523" data-name="Path 5523" d="M30.771,12.8a1.406,1.406,0,0,1-1.312-.916c-.122-.33-.258-.658-.406-.978a1.408,1.408,0,0,1,.278-1.583,2.481,2.481,0,0,0,0-3.508l-1.9-1.9a2.484,2.484,0,0,0-3.51,0,1.408,1.408,0,0,1-1.582.277c-.321-.148-.65-.285-.978-.406a1.407,1.407,0,0,1-.916-1.312A2.484,2.484,0,0,0,17.967,0H15.284A2.483,2.483,0,0,0,12.8,2.481a1.407,1.407,0,0,1-.917,1.312c-.328.121-.657.258-.978.406A1.407,1.407,0,0,1,9.326,3.92a2.483,2.483,0,0,0-3.508,0l-1.9,1.9a2.483,2.483,0,0,0,0,3.509A1.409,1.409,0,0,1,4.2,10.909c-.148.32-.285.649-.407.978a1.406,1.406,0,0,1-1.312.916A2.483,2.483,0,0,0,0,15.283v2.684a2.484,2.484,0,0,0,2.481,2.481,1.406,1.406,0,0,1,1.312.917c.122.328.258.657.407.978a1.41,1.41,0,0,1-.278,1.583,2.482,2.482,0,0,0,0,3.507l1.9,1.9a2.481,2.481,0,0,0,3.51,0,1.407,1.407,0,0,1,1.582-.277c.319.148.649.285.978.407a1.407,1.407,0,0,1,.917,1.312,2.483,2.483,0,0,0,2.481,2.481h2.683a2.484,2.484,0,0,0,2.481-2.481,1.406,1.406,0,0,1,.916-1.311c.327-.122.656-.258.978-.407a1.41,1.41,0,0,1,1.583.278,2.483,2.483,0,0,0,3.508,0l1.9-1.9a2.48,2.48,0,0,0,0-3.509,1.409,1.409,0,0,1-.277-1.582c.147-.319.284-.647.406-.977a1.407,1.407,0,0,1,1.312-.917,2.483,2.483,0,0,0,2.481-2.481V15.283A2.483,2.483,0,0,0,30.771,12.8m1.4,5.164a1.4,1.4,0,0,1-1.4,1.4,2.49,2.49,0,0,0-2.324,1.62c-.112.3-.238.606-.374.9a2.492,2.492,0,0,0,.495,2.8,1.4,1.4,0,0,1,0,1.982l-1.9,1.9a1.4,1.4,0,0,1-1.984,0,2.491,2.491,0,0,0-2.8-.493c-.3.136-.6.262-.9.374a2.491,2.491,0,0,0-1.62,2.324,1.4,1.4,0,0,1-1.4,1.4H15.284a1.4,1.4,0,0,1-1.4-1.4,2.489,2.489,0,0,0-1.62-2.324c-.3-.112-.605-.238-.9-.374a2.493,2.493,0,0,0-2.8.5,1.4,1.4,0,0,1-1.983,0l-1.9-1.9a1.4,1.4,0,0,1,0-1.983,2.492,2.492,0,0,0,.493-2.8c-.136-.3-.262-.6-.374-.9a2.489,2.489,0,0,0-2.324-1.62,1.4,1.4,0,0,1-1.4-1.4V15.283a1.4,1.4,0,0,1,1.4-1.4A2.491,2.491,0,0,0,4.8,12.262c.112-.3.238-.6.374-.9a2.492,2.492,0,0,0-.495-2.8,1.4,1.4,0,0,1,0-1.982l1.9-1.9a1.4,1.4,0,0,1,1.984,0,2.491,2.491,0,0,0,2.8.494c.3-.137.6-.262.9-.374a2.489,2.489,0,0,0,1.62-2.324,1.4,1.4,0,0,1,1.4-1.4h2.683a1.4,1.4,0,0,1,1.4,1.4A2.49,2.49,0,0,0,20.99,4.8c.3.112.6.238.9.374a2.492,2.492,0,0,0,2.8-.5,1.4,1.4,0,0,1,1.982,0l1.9,1.9a1.4,1.4,0,0,1,0,1.984,2.492,2.492,0,0,0-.493,2.8c.136.294.261.6.374.9a2.491,2.491,0,0,0,2.324,1.62,1.4,1.4,0,0,1,1.4,1.4Z" transform="translate(0 0)" fill="#fe0000"/>
        <path id="Path_5524" data-name="Path 5524" d="M27,15.775c-.167-.208-.321-.4-.474-.57L25.54,14.16a2.524,2.524,0,0,0-1.8-.744,2.6,2.6,0,0,0-.331.023,2.555,2.555,0,0,0-.73-2.138l-1.044-.98c-.161-.144-.352-.3-.56-.465A8.7,8.7,0,0,1,18.891,7.55l-.464-.781-.464.781a8.677,8.677,0,0,1-2.188,2.307c-.208.168-.4.321-.57.475l-1.044.983a2.536,2.536,0,0,0-.719,2.128,2.554,2.554,0,0,0-2.139.73l-.981,1.044c-.143.161-.3.352-.464.559A8.692,8.692,0,0,1,7.55,17.963l-.781.464.781.464A8.671,8.671,0,0,1,9.857,21.08c.167.208.321.4.474.57l.983,1.044a2.53,2.53,0,0,0,1.8.743,2.633,2.633,0,0,0,.331-.024,2.552,2.552,0,0,0,.73,2.139l1.044.98c.161.144.352.3.559.465A8.692,8.692,0,0,1,17.963,29.3l.464.781.464-.78A8.7,8.7,0,0,1,21.079,27c.208-.167.4-.321.571-.474l1.044-.983a2.536,2.536,0,0,0,.719-2.125,2.591,2.591,0,0,0,.33.023,2.534,2.534,0,0,0,1.808-.756l.981-1.044c.143-.161.3-.352.464-.559A8.67,8.67,0,0,1,29.3,18.891l.781-.464-.781-.464A8.692,8.692,0,0,1,27,15.775m-5.308,2.576a3.239,3.239,0,0,1-.635,1.925l-.818-.818a1.456,1.456,0,0,1,0-2.062l.883-.883a3.24,3.24,0,0,1,.57,1.838m-6.519,0a3.236,3.236,0,0,1,.567-1.835l.88.88a1.456,1.456,0,0,1,0,2.062l-.815.815a3.237,3.237,0,0,1-.633-1.922m4.287-1.733a1.456,1.456,0,0,1-2.062,0l-.892-.892a3.236,3.236,0,0,1,3.847,0Zm-.7,1.484a2.628,2.628,0,0,0-.023.356,2.675,2.675,0,0,0,.023.3,2.5,2.5,0,0,0-.324-.023h-.006a2.5,2.5,0,0,0-.324.023,2.66,2.66,0,0,0,.023-.3A2.627,2.627,0,0,0,18.1,18.1a2.508,2.508,0,0,0,.324.023h.006a2.646,2.646,0,0,0,.324-.023M17.4,20.237a1.456,1.456,0,0,1,2.062,0l.806.807a3.249,3.249,0,0,1-3.672,0Zm-2.485-8.148,1.021-.961c.15-.133.327-.275.52-.43a11.21,11.21,0,0,0,1.976-1.913A11.208,11.208,0,0,0,20.4,10.7c.193.155.37.3.509.42l1.021.959a1.464,1.464,0,0,1,0,2.067l-.81.809a4.317,4.317,0,0,0-5.386,0l-.812-.812a1.46,1.46,0,0,1-.012-2.056m-2.823,9.855-.961-1.021c-.133-.15-.274-.326-.429-.519a11.2,11.2,0,0,0-1.914-1.976A11.19,11.19,0,0,0,10.7,16.451c.156-.193.3-.369.42-.508l.959-1.021a1.464,1.464,0,0,1,2.067,0l.823.823a4.311,4.311,0,0,0,.065,5.3l-.889.889a1.461,1.461,0,0,1-2.056.012m9.855,2.823-1.022.961c-.15.133-.327.274-.519.43a11.191,11.191,0,0,0-1.976,1.913,11.19,11.19,0,0,0-1.976-1.913c-.193-.156-.369-.3-.508-.421l-1.021-.958a1.463,1.463,0,0,1,0-2.067l.9-.9a4.305,4.305,0,0,0,5.211,0l.9.9a1.461,1.461,0,0,1,.012,2.056M26.156,20.4c-.155.193-.3.369-.419.507l-.959,1.021a1.463,1.463,0,0,1-2.067,0l-.886-.886a4.312,4.312,0,0,0,.065-5.3l.82-.82a1.463,1.463,0,0,1,2.056-.012l.961,1.022c.133.15.274.326.43.519a11.21,11.21,0,0,0,1.913,1.976A11.167,11.167,0,0,0,26.156,20.4" transform="translate(-1.801 -1.801)" fill="#fe0000"/>
        <path id="Path_5525" data-name="Path 5525" d="M62.111,14.776H57.089l-.823,1.811H54.3l4.309-9.6h1.976l4.309,9.6H62.921ZM59.6,9l-1.784,4.089h3.568Z" transform="translate(-14.45 -1.858)" fill="#fff"/>
        <rect id="Rectangle_1673" data-name="Rectangle 1673" width="1.797" height="9.605" transform="translate(54.371 5.123)" fill="#fff"/>
        <path id="Path_5526" data-name="Path 5526" d="M91.37,15.31a4.971,4.971,0,0,1-3.65,1.427,5.9,5.9,0,0,1-2.292-.418,4.125,4.125,0,0,1-1.6-1.125,4.934,4.934,0,0,1-.9-1.571,5.521,5.521,0,0,1-.3-1.838,5.614,5.614,0,0,1,.309-1.852,5.07,5.07,0,0,1,.92-1.619,4.259,4.259,0,0,1,1.612-1.16A5.625,5.625,0,0,1,87.72,6.72a4.87,4.87,0,0,1,3.526,1.468L90.038,9.355a3.167,3.167,0,0,0-2.318-.906,3.073,3.073,0,0,0-2.47.994,3.431,3.431,0,0,0-.837,2.34,3.455,3.455,0,0,0,.837,2.3,3.087,3.087,0,0,0,2.47.953,3.549,3.549,0,0,0,1.3-.254,3.188,3.188,0,0,0,1.118-.72Z" transform="translate(-21.988 -1.788)" fill="#fff"/>
        <path id="Path_5527" data-name="Path 5527" d="M102.015,13.755v2.827H100.2V6.976q.754,0,2.264-.007t2.264-.007a4.029,4.029,0,0,1,1.393.233,3.072,3.072,0,0,1,1.056.625,3.76,3.76,0,0,1,.707.9,2.747,2.747,0,0,1,.35,1.063,5.089,5.089,0,0,1,0,1.118,2.811,2.811,0,0,1-.35,1.077,3.807,3.807,0,0,1-.7.906,3.074,3.074,0,0,1-1.05.631,3.963,3.963,0,0,1-1.406.24Zm0-1.66h2.717a1.629,1.629,0,0,0,1.289-.528,1.7,1.7,0,0,0,.46-1.174,1.781,1.781,0,0,0-.467-1.173,1.61,1.61,0,0,0-1.283-.528h-2.717Z" transform="translate(-26.664 -1.853)" fill="#fff"/>
        <g id="Group_35701" data-name="Group 35701" transform="translate(40.345 17.877)" opacity="0.2">
          <g id="Group_35700" data-name="Group 35700">
            <g id="Group_35699" data-name="Group 35699" clip-path="url(#clip-path-3)">
              <path id="Path_5528" data-name="Path 5528" d="M74.581,24.359a4.848,4.848,0,0,0-3.554,1.413,4.915,4.915,0,0,0-1.427,3.65,5.6,5.6,0,0,0,.3,1.846,4.992,4.992,0,0,0,.892,1.578,4.05,4.05,0,0,0,1.557,1.118,5.554,5.554,0,0,0,2.188.412,5.339,5.339,0,0,0,2.182-.426,4.119,4.119,0,0,0,1.544-1.132,5.073,5.073,0,0,0,.884-1.578,5.79,5.79,0,0,0,.316-1.832,5.31,5.31,0,0,0-.3-1.846,5.224,5.224,0,0,0-.9-1.606,4.182,4.182,0,0,0-1.551-1.152,5.311,5.311,0,0,0-2.141-.446m33.754.178v9.619h1.812V30.946h1.838l2.785,3.211h2.072v-.124l-2.908-3.279a2.827,2.827,0,0,0,1.852-1.091,3.3,3.3,0,0,0,.576-1.928,3.066,3.066,0,0,0-.92-2.244,3.458,3.458,0,0,0-2.538-.939q-.768,0-2.292-.007t-2.278-.007M90.7,24.551H82.8V26.2h3.046v7.958h1.811V26.2H90.7V24.551m-25.563.014H63.069l-3,4.13-3.005-4.13H54.973v9.6h1.811V27.186l3.06,4.185H60.2L63.329,27.2v6.97H65.14v-9.6m45.006,4.748V26.239H112.9a1.593,1.593,0,0,1,1.221.453,1.527,1.527,0,0,1,.425,1.084,1.543,1.543,0,0,1-.418,1.084,1.591,1.591,0,0,1-1.228.453h-2.758m-35.607,3.4a2.828,2.828,0,0,1-2.339-.96,3.743,3.743,0,0,1-.817-2.305,3.425,3.425,0,0,1,.831-2.456,2.992,2.992,0,0,1,2.366-.988,2.837,2.837,0,0,1,2.333,1.056,3.645,3.645,0,0,1,.768,2.374,3.706,3.706,0,0,1-.8,2.312,2.817,2.817,0,0,1-2.34.967m24.424,0a2.828,2.828,0,0,1-2.34-.96,3.747,3.747,0,0,1-.816-2.305,3.421,3.421,0,0,1,.83-2.456A2.992,2.992,0,0,1,99,26.006a2.839,2.839,0,0,1,2.333,1.056,3.653,3.653,0,0,1,.768,2.374,3.714,3.714,0,0,1-.8,2.312,2.818,2.818,0,0,1-2.34.967M99,24.359a4.847,4.847,0,0,0-3.554,1.413,4.913,4.913,0,0,0-1.427,3.65,5.6,5.6,0,0,0,.3,1.846,5.008,5.008,0,0,0,.892,1.578,4.044,4.044,0,0,0,1.557,1.118,5.549,5.549,0,0,0,2.188.412,5.344,5.344,0,0,0,2.182-.426,4.122,4.122,0,0,0,1.543-1.132,5.06,5.06,0,0,0,.885-1.578,5.832,5.832,0,0,0,.316-1.832,5.344,5.344,0,0,0-.3-1.846,5.226,5.226,0,0,0-.9-1.606,4.185,4.185,0,0,0-1.55-1.152A5.316,5.316,0,0,0,99,24.359" transform="translate(-54.973 -24.359)" fill="#fff"/>
            </g>
          </g>
        </g>
      </g>
    </g>
  </g>
</svg>
