<svg xmlns="http://www.w3.org/2000/svg" width="29.043" height="28.031" viewBox="0 0 29.043 28.031">
    <path id="Icon_awesome-star" data-name="Icon awesome-star"
        d="M13.493.9,10.2,7.626,2.824,8.708a1.628,1.628,0,0,0-.893,2.772l5.334,5.23L6,24.1a1.616,1.616,0,0,0,2.342,1.711l6.6-3.488,6.6,3.488A1.617,1.617,0,0,0,23.879,24.1L22.617,16.71l5.334-5.23a1.628,1.628,0,0,0-.893-2.772L19.685,7.626,16.39.9a1.612,1.612,0,0,0-2.9,0Z"
        transform="translate(-0.42 1.001)" fill="#fff" stroke="#fff" stroke-width="2" />
</svg>
