<svg xmlns="http://www.w3.org/2000/svg" xmlns:xlink="http://www.w3.org/1999/xlink" width="415" height="410.997" viewBox="0 0 415 410.997">
  <defs>
    <clipPath id="clip-path">
      <rect id="Rectangle_1694" data-name="Rectangle 1694" width="415" height="410.997" fill="none"/>
    </clipPath>
    <clipPath id="clip-path-2">
      <rect id="Rectangle_1693" data-name="Rectangle 1693" width="414.953" height="410.941" transform="matrix(0.996, -0.087, 0.087, 0.996, 0, 36.222)" fill="none"/>
    </clipPath>
    <clipPath id="clip-path-3">
      <rect id="Rectangle_1682" data-name="Rectangle 1682" width="117.265" height="78.425" fill="#e6e6e6"/>
    </clipPath>
    <linearGradient id="linear-gradient" x1="0.5" x2="0.5" y2="1" gradientUnits="objectBoundingBox">
      <stop offset="0" stop-color="#305679"/>
      <stop offset="1" stop-color="#032d54"/>
    </linearGradient>
    <clipPath id="clip-path-4">
      <rect id="Rectangle_1683" data-name="Rectangle 1683" width="29.893" height="23.109" fill="none"/>
    </clipPath>
    <clipPath id="clip-path-5">
      <rect id="Rectangle_1684" data-name="Rectangle 1684" width="8.546" height="12.998" fill="none"/>
    </clipPath>
    <clipPath id="clip-path-6">
      <rect id="Rectangle_1685" data-name="Rectangle 1685" width="38.854" height="21.529" fill="none"/>
    </clipPath>
    <clipPath id="clip-path-7">
      <rect id="Rectangle_1686" data-name="Rectangle 1686" width="5.139" height="8.039" fill="none"/>
    </clipPath>
    <clipPath id="clip-path-8">
      <rect id="Rectangle_1687" data-name="Rectangle 1687" width="4.357" height="14.297" fill="none"/>
    </clipPath>
    <clipPath id="clip-path-9">
      <rect id="Rectangle_1688" data-name="Rectangle 1688" width="2.736" height="5.815" fill="none"/>
    </clipPath>
    <clipPath id="clip-path-10">
      <rect id="Rectangle_1689" data-name="Rectangle 1689" width="16.989" height="36.77" fill="none"/>
    </clipPath>
    <clipPath id="clip-path-11">
      <rect id="Rectangle_1690" data-name="Rectangle 1690" width="11.086" height="13.118" fill="none"/>
    </clipPath>
    <clipPath id="clip-path-12">
      <rect id="Rectangle_1691" data-name="Rectangle 1691" width="9.917" height="13.25" fill="none"/>
    </clipPath>
    <clipPath id="clip-path-13">
      <rect id="Rectangle_1692" data-name="Rectangle 1692" width="5.088" height="15.847" fill="none"/>
    </clipPath>
  </defs>
  <g id="Group_35760" data-name="Group 35760" clip-path="url(#clip-path)">
    <g id="Group_35758" data-name="Group 35758" transform="translate(48.377 -45.394)" clip-path="url(#clip-path-2)">
      <g id="Group_35727" data-name="Group 35727" transform="translate(128.595 285.557)" style="mix-blend-mode: multiply;isolation: isolate">
        <g id="Group_35726" data-name="Group 35726">
          <g id="Group_35725" data-name="Group 35725" clip-path="url(#clip-path-3)">
            <path id="Path_5537" data-name="Path 5537" d="M261.757,396.835c14.294-2.731,28.059-9.255,40.72-15.656,11.25-5.688,21.681-11.684,32.295-18.2,6.384-3.921,12.733-9.387,12.53-16.1-.094-3.11-1.63-6.156-1.208-9.247.6-4.357,4.866-7.628,9.125-10.08s9-4.7,11.562-8.5c-12.136,8.32-31.584,4.125-43.763,12.4l22.017-10.677c.573-.278,1.229-.686,1.154-1.245.1.752-9.349,4.224-10.437,4.667q-5.685,2.317-11.573,4.243c-3.916,1.281-7.9,2.47-11.931,3.446-3.4.821-6.522.313-9.721,2.082-5.273,2.916-6.852,8.744-9.789,13.486-3.943,6.367-10.7,11.083-17.492,15.351s-13.925,8.362-19.139,14.023c-4.119,4.472-7.022,10.259-6.536,16.039.184,2.194,2.142,3.86,4.6,4.384a16.167,16.167,0,0,0,5.892-.111q.854-.138,1.7-.3" transform="translate(-249.517 -319.048)" fill="#e6e6e6"/>
          </g>
        </g>
      </g>
      <path id="Path_5538" data-name="Path 5538" d="M234.145,316.6a2.585,2.585,0,0,1,1.294-1.949.828.828,0,0,1,.829-.035h0l0,0h0l9.21,5.459-1.864,2.732-9.174-5.434,0,0h0a.818.818,0,0,1-.293-.771" transform="translate(-116.452 -45.727)" fill="#ebc78c"/>
      <path id="Path_5539" data-name="Path 5539" d="M247.075,324.249c-.045.743.46,1.074,1.129.74a2.586,2.586,0,0,0,1.294-1.949c.046-.743-.46-1.074-1.129-.74a2.588,2.588,0,0,0-1.294,1.949" transform="translate(-120.211 -47.942)" fill="#262424"/>
      <path id="Path_5540" data-name="Path 5540" d="M246.277,323.774a3.33,3.33,0,0,1,1.665-2.508,1.069,1.069,0,0,1,1.067-.045l0,0h0l.556.33-2.4,3.515-.512-.3,0,0h0a1.051,1.051,0,0,1-.377-.992" transform="translate(-119.979 -47.632)" fill="#f2e4e4"/>
      <path id="Path_5541" data-name="Path 5541" d="M246.992,324.189c-.059.955.592,1.382,1.453.952a3.33,3.33,0,0,0,1.665-2.508c.059-.955-.591-1.382-1.453-.953a3.33,3.33,0,0,0-1.665,2.508" transform="translate(-120.187 -47.752)" fill="#ccc0c0"/>
      <path id="Path_5542" data-name="Path 5542" d="M247.836,324.326a.717.717,0,0,0,.149.528v.006l.021.013a.8.8,0,0,0,.094.075l6.385,4.932.853.657a1.241,1.241,0,0,0,1.231-.061,3.831,3.831,0,0,0,1.887-2.906v-.115a1.146,1.146,0,0,0-.446-1.023v-.007H258l-8.49-3.651a.543.543,0,0,0-.148-.061l-.028-.014v.006a.767.767,0,0,0-.48.1,1.645,1.645,0,0,0-.23.142,2.056,2.056,0,0,0-.792,1.382" transform="translate(-120.433 -48.095)" fill="#4d7ca7"/>
      <path id="Path_5543" data-name="Path 5543" d="M247.836,324.425a.717.717,0,0,0,.149.529v.006l.021.013a.808.808,0,0,0,.094.075l6.385,4.932a5.263,5.263,0,0,0,2.158-.143c.128-.033.27-.1.291-.23s-.1-.23-.2-.312c-2.361-1.775-5.574-2.249-7.685-4.322a1.852,1.852,0,0,1-.426-1.931,2.056,2.056,0,0,0-.792,1.382" transform="translate(-120.433 -48.195)" fill="url(#linear-gradient)"/>
      <path id="Path_5544" data-name="Path 5544" d="M291.525,348.49l11.64,5.222,9.092-3.394,20.558-5.606L315.287,333.9c-1.563-1.016-3.788-1.057-6.332.129Z" transform="translate(-133.136 -51.12)" fill="url(#linear-gradient)"/>
      <path id="Path_5545" data-name="Path 5545" d="M307.964,384.471c-.007.006-.013.021-.02.027l23.31-13.955c5.026-3.462,8.808-10.311,8.808-15.744,0-2.716-.927-4.674-2.476-5.677s-3.788-1.057-6.332.129l-23.3,8.868-.013.006s12.595,8.739.02,26.346" transform="translate(-137.91 -55.53)" fill="#4d7ca7"/>
      <path id="Path_5546" data-name="Path 5546" d="M282.754,375.8s17.858,10.467,17.865,10.467.014-.021.02-.027c4.939-6.439,8.644-15.412,3.487-22.808-3.28-4.7-8.225-8.429-14.026-8.959a1.42,1.42,0,0,0-1.231.295c-.964,1.109-.594,4.172-.548,5.526a19.093,19.093,0,0,1-.369,6.158,29.892,29.892,0,0,1-5.2,9.348" transform="translate(-130.586 -57.295)" fill="#4d7ca7"/>
      <path id="Path_5547" data-name="Path 5547" d="M278.938,402.749l16.244-10-17-9.965-14.13,8.523Z" transform="translate(-125.148 -65.504)" fill="#4d7ca7"/>
      <path id="Path_5548" data-name="Path 5548" d="M327.625,379.614c0-6.168,4.351-13.685,9.72-16.789,2.67-1.544,5.088-1.7,6.845-.715h0l.024.014,0,0,3.709,1.9L333.9,387.587l-3.409-1.713-.03-.017-.015-.009h0c-1.741-1.012-2.818-3.166-2.818-6.233" transform="translate(-143.632 -59.334)" fill="#413d3d"/>
      <path id="Path_5549" data-name="Path 5549" d="M332.382,382c0,6.168,4.351,8.653,9.719,5.549s9.72-10.62,9.72-16.789-4.351-8.653-9.72-5.549-9.719,10.62-9.719,16.789" transform="translate(-145.015 -60.024)" fill="#262424"/>
      <path id="Path_5550" data-name="Path 5550" d="M338.046,382.736c0,1.031.209,3.434,2.216,3.434a5.142,5.142,0,0,0,2.452-.786c3.655-2.114,6.744-7.444,6.744-11.629,0-1.039-.218-3.442-2.225-3.442a5.073,5.073,0,0,0-2.451.8c-.123.07-.245.148-.367.227a9.8,9.8,0,0,0-1.177.883q-.262.223-.523.472a16.348,16.348,0,0,0-4.118,6.727c-.009.017-.018.026-.018.043a12.464,12.464,0,0,0-.445,2.027,8.779,8.779,0,0,0-.087,1.249" transform="translate(-146.662 -61.889)" fill="#ff7f76"/>
      <path id="Path_5551" data-name="Path 5551" d="M339.314,385.337a5.12,5.12,0,0,0,2.455-.791,15.116,15.116,0,0,0,6.737-11.631,5.065,5.065,0,0,0-.579-2.528c1.577.34,1.763,2.437,1.763,3.385a15.115,15.115,0,0,1-6.738,11.63,5.12,5.12,0,0,1-2.455.792,1.829,1.829,0,0,1-1.638-.909,2.125,2.125,0,0,0,.455.052" transform="translate(-146.898 -61.911)" fill="#ff7f76"/>
      <path id="Path_5552" data-name="Path 5552" d="M338.169,381.9a2.2,2.2,0,0,0,.7.664h.009c0,.009.009.009.009.009l1.021.524,6.255-10.51.009-.009-.087-.044a1.259,1.259,0,0,0-.279-.149l-.785-.41-.009-.009H345a2.466,2.466,0,0,0-.55-.218,9.725,9.725,0,0,0-1.177.882q-.262.223-.523.472a16.349,16.349,0,0,0-4.118,6.727c-.009.017-.018.026-.018.043a12.463,12.463,0,0,0-.445,2.027" transform="translate(-146.697 -62.307)" fill="#e6d9d9"/>
      <path id="Path_5553" data-name="Path 5553" d="M338.784,380.482a3,3,0,0,0,1.3,2.8,3.082,3.082,0,0,0,3.045-.323,9.6,9.6,0,0,0,4.336-7.5,3.1,3.1,0,0,0-1.126-2.691.214.214,0,0,0-.079-.053,1.26,1.26,0,0,0-.279-.148,2.994,2.994,0,0,0-2.53.245q-.262.223-.523.472a16.341,16.341,0,0,0-4.118,6.727,4.175,4.175,0,0,0-.026.463" transform="translate(-146.876 -62.493)" fill="#dbcece"/>
      <path id="Path_5554" data-name="Path 5554" d="M343.038,380.533a2.948,2.948,0,0,1,1.336-2.308.943.943,0,0,1,.94-.1h0l0,0h0l.743.413-1.929,3.238-.7-.386,0,0h0a.93.93,0,0,1-.387-.857" transform="translate(-148.113 -64.129)" fill="#a69c9c"/>
      <path id="Path_5555" data-name="Path 5555" d="M344.021,381.073c0,.848.6,1.19,1.336.763a2.95,2.95,0,0,0,1.336-2.308c0-.848-.6-1.19-1.336-.763a2.95,2.95,0,0,0-1.336,2.308" transform="translate(-148.399 -64.285)" fill="#ccc0c0"/>
      <path id="Path_5556" data-name="Path 5556" d="M322.133,373.579v.006a6.559,6.559,0,0,0,.609,1.5,2.048,2.048,0,0,0,.359.474c1.529,1.606,5.371,1.511,7.238,1.376a18.6,18.6,0,0,0,3.375-.576c.25-.061.5-.136.751-.217a.893.893,0,0,0,.122-.034c.209-.068.426-.142.636-.217.149-.055.3-.109.447-.17a1.108,1.108,0,0,0,.209-.081c.149-.054.3-.122.44-.183.21-.088.413-.183.616-.284,1.793-.888,3.409-2.656,4.992-3.922a15.609,15.609,0,0,1,3.328-2.222c2.28-1.009,4.506-.054,5.926-2.5a8.486,8.486,0,0,0,1.258-4.228v-.881c0-3.441-.953-6.029-2.523-7.526a27.144,27.144,0,0,0-6.765-4.328,7.884,7.884,0,0,0-2.814-.928,10.657,10.657,0,0,0-3.456.379,20.023,20.023,0,0,0-13.008,11.862,25.612,25.612,0,0,0-1.772,6.937c-.067.637-.142,1.294-.2,1.958a11.7,11.7,0,0,0,.23,3.8" transform="translate(-141.953 -55.606)" fill="url(#linear-gradient)"/>
      <g id="Group_35730" data-name="Group 35730" transform="translate(180.18 297.942)" style="mix-blend-mode: screen;isolation: isolate">
        <g id="Group_35729" data-name="Group 35729">
          <g id="Group_35728" data-name="Group 35728" clip-path="url(#clip-path-4)">
            <path id="Path_5557" data-name="Path 5557" d="M322.249,375.6a6.578,6.578,0,0,0,.609,1.5,2.043,2.043,0,0,0,.359.474c1.725,1.233,5.107,1.151,6.825,1.023a18.515,18.515,0,0,0,3.375-.575c.25-.061.5-.136.751-.217a.776.776,0,0,0,.122-.033c.21-.068.426-.143.635-.217.149-.055.3-.109.447-.17a1.163,1.163,0,0,0,.209-.081c.149-.055.3-.122.44-.183.209-.088.412-.183.615-.285,1.793-.887,3.409-2.655,4.992-3.922a15.594,15.594,0,0,1,3.329-2.222c2.28-1.009,4.505-.054,5.925-2.5a8.489,8.489,0,0,0,1.259-4.228v-.881c0-3.441-.954-6.029-2.523-7.526-.23.013-.446.034-.663.061-4.783.664-8.645,3.767-11.262,7.7a28.881,28.881,0,0,0-3.139,6.409c-.386,1.1-.71,2.208-.988,3.34a7.642,7.642,0,0,0-.155,1.03,3.856,3.856,0,0,1-.812,2.357,4.364,4.364,0,0,1-2.124,1.172,9.425,9.425,0,0,1-6.961-1.185,11.034,11.034,0,0,1-1.265-.84" transform="translate(-322.249 -355.556)" fill="#474343"/>
          </g>
        </g>
      </g>
      <path id="Path_5558" data-name="Path 5558" d="M322.249,375.732a6.611,6.611,0,0,0,.609,1.511c1.177,2.093,5.561,2,7.6,1.85a18.594,18.594,0,0,0,3.375-.576c.25-.061.5-.136.751-.217a.881.881,0,0,0,.122-.034c.209-.068.426-.142.635-.217.149-.055.3-.109.447-.17a1.116,1.116,0,0,0,.209-.081c.149-.054.3-.122.44-.183.21-.088.413-.183.616-.284,1.793-.888,3.409-2.656,4.992-3.922a15.608,15.608,0,0,1,3.328-2.222c2.28-1.009,4.506-.054,5.926-2.5a8.486,8.486,0,0,0,1.258-4.228v-.881c0-3.441-.953-6.029-2.523-7.526-.23.013-.447.034-.663.061-4.783.664-8.645,3.767-11.263,7.7a28.871,28.871,0,0,0-3.138,6.408c-.386,1.1-.711,2.209-.988,3.34a7.562,7.562,0,0,0-.155,1.03,3.856,3.856,0,0,1-.812,2.357,4.361,4.361,0,0,1-2.124,1.172,9.42,9.42,0,0,1-6.961-1.185,8.656,8.656,0,0,1-1.677-1.2" transform="translate(-142.069 -57.758)" fill="#345776"/>
      <path id="Path_5559" data-name="Path 5559" d="M330.55,358.145q.255-.512.538-1.013a17.5,17.5,0,0,1,6.111-6.5,4.653,4.653,0,0,1,3.9-.68,13.133,13.133,0,0,1,3.951,2.112c.375.277,1.172.715,1.282,1.208.174.778-.873.672-1.343.773a25.541,25.541,0,0,0-3.258,1.178,34.705,34.705,0,0,0-3.332,1.356,22.478,22.478,0,0,0-6.236,4.716,19,19,0,0,0-2.348,2.907A27.173,27.173,0,0,0,328,367.792a4.3,4.3,0,0,1,.059-2.195,31.08,31.08,0,0,1,2.488-7.452" transform="translate(-143.706 -55.939)" fill="#9aabbb"/>
      <path id="Path_5560" data-name="Path 5560" d="M297.977,348.491a3.408,3.408,0,0,0,.433.549,7.112,7.112,0,0,0,1.833,1.253,6.909,6.909,0,0,0,5.006.976c1.806-.413,3.45-1.3,5.229-1.843,2.03-.623,4.039-1.293,6.048-1.985,3.876-1.348,7.725-2.791,11.588-4.194.6-.217,1.731-.827,2.4-.651.609.156,1.252.691,1.881.624-.3-1.551-2.009-3.36-3.064-4.478-.4-.427-.819-.854-1.259-1.267a15.242,15.242,0,0,0-2.8-2.161c-4.485-2.6-11.2-2.92-14.99-.725a15.092,15.092,0,0,0-1.678,1.159c-1.9,1.443-3.639,3.123-5.425,4.7-1.035.928-2.077,1.856-3.119,2.771a11.511,11.511,0,0,0-1.305,1.328c-.981,1.179-1.631,2.595-.778,3.943" transform="translate(-134.897 -51.119)" fill="#a86133"/>
      <path id="Path_5561" data-name="Path 5561" d="M297.977,350.26a3.407,3.407,0,0,0,.433.549,7.111,7.111,0,0,0,1.833,1.253,6.909,6.909,0,0,0,5.006.976c1.806-.413,9.267-3.137,11.276-3.828,3.876-1.348,7.725-2.791,11.588-4.194.6-.217,1.731-.827,2.4-.651.609.156,1.252.691,1.881.624-.3-1.551-2.009-3.36-3.064-4.478-.4-.427-.819-.854-1.259-1.267l-.054-.006a3.324,3.324,0,0,1-.967,2.526,9.6,9.6,0,0,1-2.232,1.639c-2.2,1.306-4.439,2.553-6.732,3.688-1.184.586-2.383,1.153-3.6,1.658-1.022.423-2.068.6-3.1,1.058a11.8,11.8,0,0,1-5.983,1.143,7.466,7.466,0,0,1-6.143-3.543c-.189-.352-.345-.718-.5-1.091-.981,1.179-1.631,2.595-.778,3.943" transform="translate(-134.897 -52.887)" fill="#874014"/>
      <path id="Path_5562" data-name="Path 5562" d="M256.652,342.924a4.122,4.122,0,0,1,6.154-3.069l8.86,5.125a5.555,5.555,0,0,1,2.729,5.489l-1.445,11.7a37.061,37.061,0,0,0,.665,12.857l2.243,9.743a3.551,3.551,0,0,0,5.248,2.276l11.6-6.893,2.17-1.421-2.17,3.141-15.147,9.276a1.58,1.58,0,0,1-2.35-1l-15.258-8.825q-1.672-7.267-3.346-14.535a42.947,42.947,0,0,1-1.031-8.2,100.136,100.136,0,0,1,1.076-15.665" transform="translate(-122.675 -52.904)" fill="#345776"/>
      <path id="Path_5563" data-name="Path 5563" d="M253.2,359.8a100.129,100.129,0,0,1,1.076-15.665,4.122,4.122,0,0,1,6.154-3.069l8.859,5.125a5.553,5.553,0,0,1,2.729,5.489l-1.445,11.7a37.08,37.08,0,0,0,.665,12.857q.095.408.188.816l.489,2.124q.338,1.475.678,2.948l.757,3.288.723,3.142.2.851a3.715,3.715,0,0,0,.626,1.691,3.086,3.086,0,0,0,.312.3c.138.113.658.434.837.331a3.088,3.088,0,0,1-1.162.2,4.8,4.8,0,0,1-2.063-.194,6.478,6.478,0,0,1-1.1-.529,23.466,23.466,0,0,1-2.577-1.713c-.406-.31-.779-.691-1.2-.978s-.914-.523-1.362-.781L263.5,385.96l-2.76-1.6-2.076-1.2-1.032-.6c-.007,0-.052-.022-.054-.031L254.233,368a42.95,42.95,0,0,1-1.032-8.2" transform="translate(-121.984 -53.256)" fill="url(#linear-gradient)"/>
      <path id="Path_5564" data-name="Path 5564" d="M243.963,428c0-6.169,4.351-13.685,9.72-16.789,2.67-1.544,5.088-1.7,6.845-.715h0l.023.013,0,0,3.709,1.9-14.033,23.557-3.409-1.713-.03-.017-.015-.008h0c-1.741-1.011-2.819-3.165-2.819-6.232" transform="translate(-119.307 -73.351)" fill="#413d3d"/>
      <path id="Path_5565" data-name="Path 5565" d="M248.72,430.379c0,6.168,4.351,8.653,9.72,5.549s9.719-10.62,9.719-16.789-4.351-8.653-9.719-5.549-9.72,10.62-9.72,16.789" transform="translate(-120.691 -74.04)" fill="#262424"/>
      <path id="Path_5566" data-name="Path 5566" d="M254.385,431.119c0,1.031.209,3.434,2.216,3.434a5.139,5.139,0,0,0,2.451-.786c3.656-2.115,6.744-7.444,6.744-11.629,0-1.039-.219-3.442-2.225-3.442a5.082,5.082,0,0,0-2.452.795c-.122.07-.244.149-.366.227a9.807,9.807,0,0,0-1.177.883q-.263.223-.524.472a16.348,16.348,0,0,0-4.117,6.727.087.087,0,0,0-.018.043,12.466,12.466,0,0,0-.445,2.027,8.782,8.782,0,0,0-.087,1.249" transform="translate(-122.338 -75.907)" fill="#ff7f76"/>
      <path id="Path_5567" data-name="Path 5567" d="M255.652,433.72a5.122,5.122,0,0,0,2.455-.792,15.114,15.114,0,0,0,6.737-11.63,5.066,5.066,0,0,0-.579-2.528c1.577.34,1.763,2.437,1.763,3.385a15.116,15.116,0,0,1-6.738,11.63,5.12,5.12,0,0,1-2.455.792,1.831,1.831,0,0,1-1.638-.909,2.128,2.128,0,0,0,.455.052" transform="translate(-122.574 -75.928)" fill="#ff7f76"/>
      <path id="Path_5568" data-name="Path 5568" d="M254.508,430.286a2.2,2.2,0,0,0,.7.664h.008c0,.009.009.009.009.009l1.021.524,6.255-10.51.008-.009-.087-.044a1.229,1.229,0,0,0-.279-.148l-.785-.41-.009-.009h-.009a2.469,2.469,0,0,0-.55-.219,9.856,9.856,0,0,0-1.177.883q-.262.223-.523.472a16.34,16.34,0,0,0-4.117,6.727c-.009.017-.018.026-.018.043a12.316,12.316,0,0,0-.445,2.027" transform="translate(-122.373 -76.324)" fill="#e6d9d9"/>
      <path id="Path_5569" data-name="Path 5569" d="M255.123,428.865a3,3,0,0,0,1.3,2.8,3.081,3.081,0,0,0,3.045-.323,9.6,9.6,0,0,0,4.336-7.5,3.1,3.1,0,0,0-1.126-2.691.209.209,0,0,0-.079-.052,1.226,1.226,0,0,0-.279-.149,2.994,2.994,0,0,0-2.53.245q-.262.223-.524.472a16.348,16.348,0,0,0-4.117,6.727,4.172,4.172,0,0,0-.026.463" transform="translate(-122.552 -76.51)" fill="#dbcece"/>
      <path id="Path_5570" data-name="Path 5570" d="M259.376,428.916a2.947,2.947,0,0,1,1.336-2.308.945.945,0,0,1,.94-.1h0l0,0h0l.743.413-1.929,3.238-.7-.386,0,0h0a.932.932,0,0,1-.387-.857" transform="translate(-123.789 -78.146)" fill="#a69c9c"/>
      <path id="Path_5571" data-name="Path 5571" d="M260.359,429.455c0,.848.6,1.19,1.336.763a2.949,2.949,0,0,0,1.336-2.308c0-.848-.6-1.19-1.336-.763a2.949,2.949,0,0,0-1.336,2.308" transform="translate(-124.075 -78.302)" fill="#e6d9d9"/>
      <path id="Path_5572" data-name="Path 5572" d="M240.333,414.392a7.216,7.216,0,0,0,2.959,5.026,10.788,10.788,0,0,0,6.834,1.636,16.584,16.584,0,0,0,5.95-1.589c1.618-.8,3.079-2.4,4.5-3.536a13.964,13.964,0,0,1,3.007-2.005c2.059-.911,4.061-.052,5.346-2.255a7.67,7.67,0,0,0,1.133-3.812v-.8c0-3.1-.858-5.443-2.278-6.792a4.835,4.835,0,0,0-.894-.683,1.223,1.223,0,0,0-.109-.062,1.048,1.048,0,0,0-.13-.068c-.011-.011-8.093-4.651-8.093-4.651l-1.321-.761-1.358-.807c-1.649-1.094-3.859-1.063-6.288.338-4.4,2.542-7.234,7.672-8.519,12.443a20.758,20.758,0,0,0-.744,8.375" transform="translate(-118.202 -68.307)" fill="#1c466e"/>
      <path id="Path_5573" data-name="Path 5573" d="M240.4,417.571c.135.354.172.9.28,1.26a7.994,7.994,0,0,0,.575,1.416,6.5,6.5,0,0,0,2.094,2.354,10.787,10.787,0,0,0,6.834,1.636,16.574,16.574,0,0,0,5.95-1.589c1.617-.8,3.079-2.4,4.5-3.536a13.945,13.945,0,0,1,3.006-2.006c2.06-.911,4.062-.052,5.346-2.255a7.67,7.67,0,0,0,1.134-3.812v-.8c0-3.1-.859-5.443-2.278-6.792-.2.011-.4.031-.6.058-4.312.593-7.8,3.4-10.157,6.942a25.886,25.886,0,0,0-2.834,5.781c-.349.99-.64,2-.889,3.016a7.856,7.856,0,0,0-.146.927,3.461,3.461,0,0,1-.728,2.13,3.941,3.941,0,0,1-1.919,1.053,8.5,8.5,0,0,1-6.282-1.069,6.493,6.493,0,0,1-2.243-1.921,22.844,22.844,0,0,1-1.7-2.9c.017.033.033.069.048.107" transform="translate(-118.257 -71.49)" fill="#345776"/>
      <path id="Path_5574" data-name="Path 5574" d="M255.139,382.938a1,1,0,0,0,.04.19,3.415,3.415,0,0,0,.44,1.151,3.124,3.124,0,0,0,1.333,1.26c.013,0,.021.007.034.013a2.867,2.867,0,0,0,1.1.251c.094.007.183.007.27.007a3.291,3.291,0,0,0,.359-.021,12.958,12.958,0,0,0,2.976-.806c.345-.129.69-.257,1.036-.379.115-.04.23-.081.345-.115s.23-.081.352-.122c.311-.094.623-.182.92-.257a5.5,5.5,0,0,1,1.637-.156c.1.006.2.02.291.033a2.771,2.771,0,0,1,.562.149c1.373.522,2.489,1.457,3.863,1.958-1.414-1.734-3.119-3.082-4.383-4.945a15.048,15.048,0,0,1-1.975-4.112c-.007-.021-.014-.041-.021-.061q-.2-.691-.345-1.4c-.021-.1-.048-.2-.061-.3-.724-3.923-.352-7.642-.067-11.585.3-4.221.7-8.428,1.014-12.647.074-1,.318-2.588-.25-3.483-1.082-1.72-2.949.522-3.226,1.775-.074.339-.135.678-.176,1.016-.23,1.843-.055,3.719-.176,5.575-.42,6.775-.866,14.734-3.93,20.913a30.8,30.8,0,0,0-1.583,3.231c-.021.061-.048.129-.068.2s-.033.108-.054.162a5.675,5.675,0,0,0-.25,2.514" transform="translate(-122.543 -55.115)" fill="#4d7ca7"/>
      <path id="Path_5575" data-name="Path 5575" d="M256.343,381.668a2.63,2.63,0,0,0,.9,2.6,2.838,2.838,0,0,0,2.486.651,3.96,3.96,0,0,0,1.476-.772,5.4,5.4,0,0,0,1.229-1.315,5.833,5.833,0,0,0,.833-2.908,10.2,10.2,0,0,0-.269-3.04c-.252-.906-.614-1.766-.794-2.7a20.851,20.851,0,0,1-.088-5.582q.5-6.37,1.434-12.7c0-1.011.217-2.372-.382-3.261a.837.837,0,0,0-.866-.392,1.044,1.044,0,0,0-.533.44c-.894,1.256-.3,3.284-.39,4.764-.42,6.774-.866,14.734-3.93,20.912a11.22,11.22,0,0,0-1.1,3.3" transform="translate(-122.894 -56.651)" fill="#9aabbb"/>
      <path id="Path_5576" data-name="Path 5576" d="M267.95,388.66c-.133-.46-.253-.928-.347-1.4a12.392,12.392,0,0,0,.347,1.4" transform="translate(-126.181 -66.799)" fill="#75afbc"/>
      <path id="Path_5577" data-name="Path 5577" d="M267.574,387.113l0,.021c-.018-.1-.047-.2-.059-.305.02.1.034.19.054.285" transform="translate(-126.156 -66.674)" fill="#75afbc"/>
      <path id="Path_5578" data-name="Path 5578" d="M255.139,395.218a1,1,0,0,0,.04.19,3.415,3.415,0,0,0,.44,1.151,3.124,3.124,0,0,0,1.333,1.26c.013,0,.021.007.034.013a4.3,4.3,0,0,0,1.1.251c.094.007.183.007.27.007h.122c.082-.007.155-.007.237-.021a11.286,11.286,0,0,0,2.976-.806c.345-.129.69-.257,1.036-.379.115-.04.23-.081.345-.115s.23-.081.352-.122c.3-.094.609-.19.92-.257a4.792,4.792,0,0,1,1.637-.155,1.5,1.5,0,0,1,.291.033,2.773,2.773,0,0,1,.562.149c1.373.522,2.489,1.457,3.863,1.958-1.414-1.734-3.119-3.082-4.383-4.945a15.048,15.048,0,0,1-1.975-4.112c.02.081.047.163.067.244a7.131,7.131,0,0,1,.372,3.747,5.119,5.119,0,0,1-1.806,2.967,7.018,7.018,0,0,1-1.914.772,11.55,11.55,0,0,1-2.233.576,3.322,3.322,0,0,1-2.286-.522,3.03,3.03,0,0,1-1.218-2.892c.048-.555.135-1.1.128-1.666-.02.054-.033.108-.054.162a5.675,5.675,0,0,0-.25,2.514" transform="translate(-122.543 -67.396)" fill="#345776"/>
      <path id="Path_5579" data-name="Path 5579" d="M242.209,412.542a17.584,17.584,0,0,1,.191-2.141,16.554,16.554,0,0,1,.8-3.886,17.387,17.387,0,0,1,5.541-7.13c1.294-.945,3.464.624,3.125,2.142-.162.726-1,1.023-1.526,1.407a14.948,14.948,0,0,0-3.955,4.79,20.864,20.864,0,0,0-2.136,4.974,28.781,28.781,0,0,0-.491,5.283.566.566,0,0,1-.36-.3,9.054,9.054,0,0,1-1.184-5.141" transform="translate(-118.796 -70.229)" fill="#9aabbb"/>
      <path id="Path_5580" data-name="Path 5580" d="M259.551,327.836l5.183,2.131,3.876,12.95c0-.075.089-.176.226-.3.357-.314,1.015-.707,1.143-.809,1.673-1.34,3.289-3.316,3.285-5.611a10.78,10.78,0,0,0-.649-3.414,9.541,9.541,0,0,0-.887-1.835,10.584,10.584,0,0,0-2.022-2.347,7.619,7.619,0,0,0-5.868-1.84c-.009,0-.017,0-.026,0a15.826,15.826,0,0,0-4.225,1.052l-.035.014" transform="translate(-123.84 -49.259)" fill="url(#linear-gradient)"/>
      <path id="Path_5581" data-name="Path 5581" d="M272.6,344.349c.357-.314,1.015-.707,1.143-.809,1.673-1.34,3.289-3.316,3.285-5.611a10.775,10.775,0,0,0-.649-3.414,9.522,9.522,0,0,0-.887-1.835c.168.566.34,1.127.512,1.689a4.292,4.292,0,0,1,.27,2.135,2.117,2.117,0,0,1-3.568,1.039c-.45,2.224.026,4.532-.106,6.8" transform="translate(-127.608 -50.987)" fill="#9aabbb"/>
      <path id="Path_5582" data-name="Path 5582" d="M268.363,339.956A14,14,0,0,0,262.019,329c-1.743-1.009-3.321-1.112-4.467-.467h0l-.016.009,0,0-2.421,1.242,9.159,15.376,2.224-1.119.019-.011.01-.006h0c1.136-.661,1.839-2.066,1.839-4.068" transform="translate(-122.549 -49.668)" fill="#4d7ca7"/>
      <path id="Path_5583" data-name="Path 5583" d="M265.49,341.511c0,4.026-2.84,5.647-6.344,3.622a14,14,0,0,1-6.343-10.957c0-4.027,2.84-5.648,6.343-3.622a14,14,0,0,1,6.344,10.958" transform="translate(-121.878 -50.118)" fill="#9aabbb"/>
      <path id="Path_5584" data-name="Path 5584" d="M262.355,345.482c1.636,0,2.613-1.349,2.613-3.61a13.043,13.043,0,0,0-5.9-10.191,4.962,4.962,0,0,0-2.406-.754c-1.636,0-2.613,1.35-2.613,3.61a13.042,13.042,0,0,0,5.9,10.191,4.962,4.962,0,0,0,2.405.754Z" transform="translate(-122.24 -50.479)" fill="#fff700"/>
      <g id="Group_35733" data-name="Group 35733" transform="translate(133.819 281.01)" style="mix-blend-mode: screen;isolation: isolate">
        <g id="Group_35732" data-name="Group 35732">
          <g id="Group_35731" data-name="Group 35731" clip-path="url(#clip-path-5)">
            <path id="Path_5585" data-name="Path 5585" d="M257.653,331.722a3.5,3.5,0,0,1,1.2.317,10.659,10.659,0,0,1,1.95,1.439,13.217,13.217,0,0,1,2.655,3.058,13.056,13.056,0,0,1,1.531,3.444,8.457,8.457,0,0,1,.357,3.662c-.092.418-.667,1.715-1.024.689-.307-.881-.4-1.821-.625-2.728a16.1,16.1,0,0,0-1.584-3.818,9.349,9.349,0,0,0-2.3-2.918,19.622,19.622,0,0,0-1.553-1.36c-.426-.268-1.237-.531-1.355-1.1s.274-.713.748-.688" transform="translate(-256.883 -331.719)" fill="#fff"/>
          </g>
        </g>
      </g>
      <path id="Path_5586" data-name="Path 5586" d="M306.546,339.419c.826-.656,1.644-1.231,2.2-1.7,3.418-2.909,6.922-4.142,11.4-3.46,1.455.222,3.043.677,3.809,1.936,1.123,1.845.055,3.655-1.343,4.963a27.556,27.556,0,0,1-6.167,3.9,15.423,15.423,0,0,1-5.917,1.5c-1.892.138-5.6.392-6.685-1.656-1.092-2.075.826-3.992,2.7-5.484" transform="translate(-136.624 -51.391)" fill="#b86b38"/>
      <path id="Path_5587" data-name="Path 5587" d="M320.552,389.231a3.059,3.059,0,0,1,1.386-2.394.983.983,0,0,1,.977-.1l0,0h0l2.789,1.367-2,3.36-2.746-1.34,0,0h0a.966.966,0,0,1-.4-.889" transform="translate(-141.575 -66.622)" fill="#413d3d"/>
      <path id="Path_5588" data-name="Path 5588" d="M324.417,391.111c0,.88.621,1.234,1.386.791a3.058,3.058,0,0,0,1.387-2.394c0-.88-.621-1.234-1.387-.792a3.062,3.062,0,0,0-1.386,2.4" transform="translate(-142.699 -67.166)" fill="#262424"/>
      <path id="Path_5589" data-name="Path 5589" d="M320.236,270.221c-.641-.042-.967.337-1.3.8a7.313,7.313,0,0,1-.651.621,6.318,6.318,0,0,0-.589.7,1.956,1.956,0,0,1-.452.526,1.2,1.2,0,0,1-.788.168c-.82-.073-.935-.768-1.229-1.41-.347-.757-.694-1.526-1-2.3a13.992,13.992,0,0,1-.893-4.282c-.021-.411-.945-9.47-.914-9.754a4.147,4.147,0,0,1-.168-1.126,2.828,2.828,0,0,1,.316-1.136,7.126,7.126,0,0,1,1.1-1.462,8.839,8.839,0,0,0,1.167-1.41c.21-.337.346-.726.567-1.042.221-.337.966-1.421,1.428-.831a.7.7,0,0,1,.106.505,2.606,2.606,0,0,1-.5,1.315,3.008,3.008,0,0,0-.409.558.157.157,0,0,0,.031.189.21.21,0,0,0,.21.021,2.115,2.115,0,0,0,.967-.642,6.98,6.98,0,0,1,.84-.831,2.164,2.164,0,0,1,1.093-.4.169.169,0,0,1,.126.011.228.228,0,0,1,.084.19.378.378,0,0,1-.021.116,1.216,1.216,0,0,1-.157.421,6.375,6.375,0,0,1-1.177,1.484c-.641.641-1.324,1.231-1.943,1.9-.263.305-.515.621-.788.9a1.641,1.641,0,0,0-.379,1.189,34.46,34.46,0,0,0,1.345,3.746c.515,1.2,1.188,2.325,1.682,3.525a9.887,9.887,0,0,1,.977,3.419,10.452,10.452,0,0,0,.136,2.5,3.429,3.429,0,0,0,.8,1.442,2.563,2.563,0,0,0,.389.368" transform="translate(-139.161 -26.486)" fill="#ffcfb3"/>
      <path id="Path_5590" data-name="Path 5590" d="M320.76,270.344a.933.933,0,0,1-.315.326,1.873,1.873,0,0,1-.872.2,4.573,4.573,0,0,0-3.341,1.43,4.449,4.449,0,0,1,1.965-3.809,1.592,1.592,0,0,0,.462-.369,1.4,1.4,0,0,0,.157-1.073c-.4-3.009-1.618-5.84-2.626-8.7a10.411,10.411,0,0,1-.8-3.083,2.424,2.424,0,0,1,.084-.831,2.284,2.284,0,0,1,.283-.579,6.026,6.026,0,0,1,.578-.757,22.009,22.009,0,0,1,2.879-2.41c.284-.232.652-.726,1.051-.884a1.22,1.22,0,0,1-.157.421,6.37,6.37,0,0,1-1.177,1.483c-.641.642-1.323,1.231-1.943,1.905-.263.3-.515.621-.788.9a1.639,1.639,0,0,0-.379,1.189,34.33,34.33,0,0,0,1.345,3.745c.514,1.2,1.187,2.325,1.681,3.525a9.894,9.894,0,0,1,.977,3.42,10.448,10.448,0,0,0,.136,2.5,3.43,3.43,0,0,0,.8,1.441" transform="translate(-140.074 -26.977)" fill="#ffbf99"/>
      <path id="Path_5591" data-name="Path 5591" d="M323.712,282.89a7.329,7.329,0,0,1-.672,2.693,12.475,12.475,0,0,1-3.772,5.1,1.112,1.112,0,0,1-1.093.316,2.7,2.7,0,0,1-1.345-2.041v-.074a11.634,11.634,0,0,0-.032-2.262c-.042-.168-.084-.337-.136-.494a12.049,12.049,0,0,0-.736-1.726,5.686,5.686,0,0,1-.326-.789,3.538,3.538,0,0,1,.011-1.41c.074-.431.148-.863.253-1.283a7.119,7.119,0,0,1,.326-1.021,3.893,3.893,0,0,1,1.545-2.052,4.513,4.513,0,0,1,2.7-.484,2.438,2.438,0,0,1,1.45.41,2.376,2.376,0,0,1,.567.852,9.681,9.681,0,0,1,1.261,4.262" transform="translate(-140.116 -34.957)" fill="#ffaf40"/>
      <path id="Path_5592" data-name="Path 5592" d="M322.136,281.67c-1.1,1.936-2.217,3.882-3.32,5.819a10.5,10.5,0,0,1-1.692,2.41,2.181,2.181,0,0,1-.294.242,11.582,11.582,0,0,0-.032-2.262c-.042-.168-.084-.337-.136-.494a12.028,12.028,0,0,0-.736-1.725,5.738,5.738,0,0,1-.326-.789,3.569,3.569,0,0,1,.011-1.411c.074-.431.148-.862.253-1.284a6.789,6.789,0,0,1,1.04,2.063.863.863,0,0,0,.4.494.786.786,0,0,0,.715-.179,9.935,9.935,0,0,0,1.082-1.21,7.348,7.348,0,0,1,3.036-1.673" transform="translate(-140.116 -36.209)" fill="#ff8340"/>
      <path id="Path_5593" data-name="Path 5593" d="M356.189,283.029a17.945,17.945,0,0,0,6.031,1.736c1.975.358,3.939.789,5.873,1.295-3.794,2.294-7.933,4.4-12.367,4.366-3.058-.021-5.979-1.063-8.837-2.031a43.5,43.5,0,0,0-4.412-1.347c-1.418-.337-2.858-.421-4.287-.631-1.786-.252-3.529-.158-5.033-1.347a7.657,7.657,0,0,1-1.943-2.652c-.158-.327-.316-.653-.452-.989a9.3,9.3,0,0,1-.4-1.157,1.407,1.407,0,0,1-.073-.284,4.324,4.324,0,0,1-.137-.621v-.011a5.694,5.694,0,0,1,.032-2.231,22.083,22.083,0,0,1,1.44-3.377c.483-1.189.725-2.473,1.292-3.62a4.361,4.361,0,0,1,.725-1.073,1.577,1.577,0,0,0,.389-1.115.569.569,0,0,1,.041-.264c.284-.621,1.409-.158,1.776.053a7.375,7.375,0,0,1,1.524,1.136l.032.032a8.738,8.738,0,0,1,1.26,1.389c.474.537.957,1.073,1.471,1.578a12.79,12.79,0,0,0,2.028,1.663c.136.084.272.168.41.242.062.042.126.073.189.115.2.106.409.2.619.295a10.607,10.607,0,0,0,2.081.79,13.412,13.412,0,0,0,2.742.221c1.911-.021,3.8-.337,5.7-.548a7.23,7.23,0,0,1,3.846.327,10.119,10.119,0,0,0-3.225.884,4.587,4.587,0,0,0-2.133,1.357,4.052,4.052,0,0,0,2.953.695,17.365,17.365,0,0,0,3.005-.737,12.413,12.413,0,0,1,7.081-.274c-1.534-.073-2.742,1.526-4.275,1.558.787.778,2.553.652,3.572.663a19.394,19.394,0,0,0,4.277-.442c-.273.063-.84.81-1.1,1.01a8.1,8.1,0,0,1-1.47.821c-.935.379-1.9.747-2.859,1.073a19.171,19.171,0,0,1-7.385,1.452" transform="translate(-144.339 -32.065)" fill="#483e49"/>
      <g id="Group_35736" data-name="Group 35736" transform="translate(185.813 236.833)" style="mix-blend-mode: multiply;isolation: isolate">
        <g id="Group_35735" data-name="Group 35735">
          <g id="Group_35734" data-name="Group 35734" clip-path="url(#clip-path-6)">
            <path id="Path_5594" data-name="Path 5594" d="M356.228,283.654a17.948,17.948,0,0,0,6.031,1.736c1.975.358,3.939.789,5.873,1.295-3.794,2.294-7.933,4.4-12.367,4.366-3.058-.021-5.979-1.063-8.837-2.031a43.5,43.5,0,0,0-4.412-1.347c-1.418-.337-2.858-.421-4.287-.631-1.786-.252-3.529-.158-5.033-1.347a7.657,7.657,0,0,1-1.943-2.651c-.158-.327-.316-.653-.452-.989a9.309,9.309,0,0,1-.4-1.157,1.406,1.406,0,0,1-.073-.284,4.313,4.313,0,0,1-.137-.621v-.011a17.144,17.144,0,0,1,1.849-2.252,19.681,19.681,0,0,1,2.6-2.452c.609-.452,1.262-.821,1.9-1.231.453-.284,1.324-.642,1.377-1.232a7.687,7.687,0,0,0-.472-3.293,8.736,8.736,0,0,1,1.26,1.389c.474.537.957,1.073,1.471,1.578a12.791,12.791,0,0,0,2.028,1.663c.136.084.272.168.41.242.062.042.126.073.189.115.2.106.409.2.619.295a10.611,10.611,0,0,0,2.081.79,13.417,13.417,0,0,0,2.742.221c1.911-.021,3.8-.337,5.7-.548a7.23,7.23,0,0,1,3.846.327,10.121,10.121,0,0,0-3.225.884,4.587,4.587,0,0,0-2.133,1.357,4.052,4.052,0,0,0,2.953.695,17.362,17.362,0,0,0,3.005-.737,12.412,12.412,0,0,1,7.081-.274c-1.534-.073-2.742,1.526-4.275,1.558.787.779,2.553.652,3.572.663a19.391,19.391,0,0,0,4.277-.442c-.273.063-.84.81-1.1,1.01a8.1,8.1,0,0,1-1.47.821c-.936.379-1.9.746-2.859,1.073a19.171,19.171,0,0,1-7.386,1.452" transform="translate(-330.191 -269.522)" fill="#483e49"/>
          </g>
        </g>
      </g>
      <path id="Path_5595" data-name="Path 5595" d="M335.258,292.647c-.179,1.063-.389,2.125-.62,3.188-.126.558-.252,1.1-.389,1.662q-.583,2.383-1.355,4.7c-.452,1.357-.956,2.694-1.45,4.03-.767,2.041-1.566,3.777-3.688,4.682a16.06,16.06,0,0,1-3.436.989c-.473.084-.935.158-1.408.21a13.961,13.961,0,0,1-3.625.053,9.2,9.2,0,0,1-3.961-1.6c-1-.727-1.114-2.178-1.419-3.326a47.07,47.07,0,0,1-1.419-9.449,10.675,10.675,0,0,1,1.439-6.7c.652-1.274,1.366-2.515,2.123-3.725,1.324-2.147,2.742-4.23,4.2-6.282.347-.505.5-.558,1.114-.442a5.368,5.368,0,0,1,1.513.526,16.68,16.68,0,0,1,2.721,1.9,64.139,64.139,0,0,0,8.732,5.851,2.453,2.453,0,0,1,1.124.957c.378.789-.063,1.957-.2,2.767" transform="translate(-139.221 -35.896)" fill="#ffaf40"/>
      <path id="Path_5596" data-name="Path 5596" d="M339.113,301.119q-.583,2.383-1.355,4.7c-.452,1.357-.956,2.693-1.45,4.03-.767,2.041-1.566,3.777-3.688,4.682a16.1,16.1,0,0,1-3.436.989c.031-.8.094-1.6.157-2.389a77.845,77.845,0,0,1,1.271-10.238,33.376,33.376,0,0,1,1.555-5.3,24.285,24.285,0,0,1,1.145-2.5c.389-.737.693-1.6,1.482-1.968a.32.32,0,0,1,.167-.031.265.265,0,0,1,.148.116,2.9,2.9,0,0,0,.452.758c.242.21.6.294.862.484a4.98,4.98,0,0,1,1.481,1.841,13.2,13.2,0,0,1,1.209,4.83" transform="translate(-144.085 -39.517)" fill="#ff8340"/>
      <path id="Path_5597" data-name="Path 5597" d="M332.151,282.591c-.011.474-.073,1.494.368,1.8.084.063.2.126.189.232-.011.126-.168.158-.284.179-1.544.168-2.774,1.3-4.171,2a7.27,7.27,0,0,1-1.66.589,2.513,2.513,0,0,1-1.218.021,1.147,1.147,0,0,1-.42-.253,1.288,1.288,0,0,1-.368-.831,3.943,3.943,0,0,1,.052-.926c.126-.957.262-1.915.389-2.872a2.208,2.208,0,0,0-.094-1.168c-.084-.232-.242-.432-.189-.695.148-.863,1.156-.821,1.818-.768a7.5,7.5,0,0,0,2.973-.347,3.711,3.711,0,0,0,1.818-1.168c.536-.684,1.072-1.378,1.6-2.062.052-.063.137-.148.221-.105.2.084-.3,1.1-.357,1.22a8.335,8.335,0,0,0-.283,1.347c-.053.242-.106.484-.137.737a17.643,17.643,0,0,0-.242,3.073" transform="translate(-142.745 -34.625)" fill="#ffcfb3"/>
      <path id="Path_5598" data-name="Path 5598" d="M333.037,285.934c-.011.126-.168.158-.284.179-1.545.168-2.774,1.3-4.171,2a7.282,7.282,0,0,1-1.66.589,2.514,2.514,0,0,1-1.218.021,8.514,8.514,0,0,0,3.52-3.1,6.368,6.368,0,0,0,.619-1.221,12.146,12.146,0,0,0,.368-2.2,1.79,1.79,0,0,1,1.187-1.379,2.467,2.467,0,0,1,1.324.011,17.643,17.643,0,0,0-.242,3.073c-.011.474-.074,1.494.367,1.8.084.063.2.126.189.232" transform="translate(-143.073 -35.938)" fill="#ffbf99"/>
      <path id="Path_5599" data-name="Path 5599" d="M325.529,267.5a2.067,2.067,0,0,1-.013.348,2.6,2.6,0,0,1-.65,1.2c-1,1.181-2.374,2.09-3.029,3.495a1.8,1.8,0,0,0-.165,1.285c.123.366.6.612.9.826a13.82,13.82,0,0,0,2.5,1.356,15.5,15.5,0,0,0,3.648,1.149,1.72,1.72,0,0,0,.86-.016,1.462,1.462,0,0,0,.763-.836,3.351,3.351,0,0,0,.281-1.265,6.188,6.188,0,0,0-.335-1.886,21.684,21.684,0,0,0-2.179-5.174,3.4,3.4,0,0,0-.889-1.055,1.913,1.913,0,0,0-.833-.329.9.9,0,0,0-.772.238,1.33,1.33,0,0,0-.088.667" transform="translate(-141.884 -31.838)" fill="#4b4d7e"/>
      <path id="Path_5600" data-name="Path 5600" d="M333.618,277.236a1.948,1.948,0,0,1-1.03,1.22,3.032,3.032,0,0,1-2.091.179,1.275,1.275,0,0,0-.525-.063,1.21,1.21,0,0,0-.431.221c-.231.169-.462.337-.7.506a2.855,2.855,0,0,1-.894.484,2.888,2.888,0,0,1-1.2-.031c-.831-.148-1.66-.295-2.5-.432a7.182,7.182,0,0,1-1.618-.42,2.713,2.713,0,0,1-.882-.611l-.021-.021a1.165,1.165,0,0,1-.3-.916,19.3,19.3,0,0,1,.41-2.8,4.391,4.391,0,0,1,.62-1.747c.336-.473.872-.852.977-1.421.043-.21.011-.431.074-.641a1.474,1.474,0,0,1,.273-.442,9.19,9.19,0,0,1,1.744-1.757,4.316,4.316,0,0,1,2.228-.758,3.581,3.581,0,0,1,.819.063c.347.053.694.105,1.03.19a4.463,4.463,0,0,1,.956.389,3.969,3.969,0,0,1,1.639,2.052,8.319,8.319,0,0,1,.441,2.642,5.5,5.5,0,0,0,.41,2.514c.294.537.767.947.578,1.6" transform="translate(-141.827 -32.185)" fill="#ffcfb3"/>
      <path id="Path_5601" data-name="Path 5601" d="M333.744,277.341a1.948,1.948,0,0,1-1.03,1.22,3.032,3.032,0,0,1-2.091.179,1.276,1.276,0,0,0-.525-.063,1.21,1.21,0,0,0-.431.221c-.231.169-.462.337-.7.506a2.856,2.856,0,0,1-.894.484,2.889,2.889,0,0,1-1.2-.031c-.831-.148-1.66-.295-2.5-.432a7.183,7.183,0,0,1-1.619-.42,2.714,2.714,0,0,1-.882-.611l-.021-.021a13.659,13.659,0,0,0,2.616.295,6.04,6.04,0,0,0,3.52-1.042,6.57,6.57,0,0,0,1.86-2.347,5.352,5.352,0,0,0,.6-3.966,9.193,9.193,0,0,1-.882-2.62.963.963,0,0,1,.157-.547,4.466,4.466,0,0,1,.956.389,3.969,3.969,0,0,1,1.639,2.052,8.317,8.317,0,0,1,.441,2.642,5.5,5.5,0,0,0,.41,2.514c.294.537.767.947.578,1.6" transform="translate(-141.953 -32.29)" fill="#ffbf99"/>
      <path id="Path_5602" data-name="Path 5602" d="M337.693,272.481a7.4,7.4,0,0,1-.935,3.556,4.759,4.759,0,0,1-.925,1.21,1.884,1.884,0,0,1-.557.4,1.011,1.011,0,0,0-.242.116c-.063.042-.262.073-.316.116.536-.579,1.072-1.631.274-2.242-.988-.757-2.038.411-2.438,1.231a16.678,16.678,0,0,1,.641-3.009,4.571,4.571,0,0,0-.116-3.02.01.01,0,0,0-.011-.011c-.41-.831-1.219-1.431-1.618-2.294-.062-.137-.262-.579-.031-.695a.9.9,0,0,1-.578.053,5.418,5.418,0,0,1-.557-.147,4.819,4.819,0,0,0-2.805.158c.052-.021.136-.148.179-.19.073-.074.158-.136.231-.21a5.039,5.039,0,0,1,2.658-1.136,7.911,7.911,0,0,1,1.219-.021,6.4,6.4,0,0,1,4.434,2.094,5.921,5.921,0,0,1,.851,1.4c.063.136.126.284.179.42a5.956,5.956,0,0,1,.462,2.22" transform="translate(-143.59 -31.766)" fill="#483e49"/>
      <g id="Group_35739" data-name="Group 35739" transform="translate(188.965 238.074)" style="mix-blend-mode: multiply;isolation: isolate">
        <g id="Group_35738" data-name="Group 35738">
          <g id="Group_35737" data-name="Group 35737" clip-path="url(#clip-path-7)">
            <path id="Path_5603" data-name="Path 5603" d="M339.773,273.912a7.4,7.4,0,0,1-.935,3.556,4.759,4.759,0,0,1-.925,1.21,1.885,1.885,0,0,1-.557.4,1.01,1.01,0,0,0-.242.116c-.063.042-.262.073-.316.116.536-.579,1.072-1.631.274-2.242-.988-.757-2.038.411-2.438,1.231a16.688,16.688,0,0,1,.641-3.009,4.57,4.57,0,0,0-.116-3.02.01.01,0,0,0-.011-.011c.157.011.315.032.462.042a5.691,5.691,0,0,0,2.816-.6,4.854,4.854,0,0,0,.7-.431c.063.136.126.284.179.42a5.957,5.957,0,0,1,.462,2.22" transform="translate(-334.635 -271.27)" fill="#483e49"/>
          </g>
        </g>
      </g>
      <path id="Path_5604" data-name="Path 5604" d="M325.063,283.089a2.546,2.546,0,0,1,.837-.232c.3-.072.59-.157.882-.248.588-.183,1.166-.394,1.745-.606a15.913,15.913,0,0,0,1.8-.74,1.325,1.325,0,0,0,.63-.529l.5.228a1.789,1.789,0,0,1-.881.795,16.373,16.373,0,0,1-1.86.767c-.4.146-.8.293-1.209.431a3.9,3.9,0,0,1-1.533.308,4.292,4.292,0,0,1-.913-.174" transform="translate(-142.887 -35.938)" fill="#483e49"/>
      <path id="Path_5605" data-name="Path 5605" d="M339.349,272.3a8.977,8.977,0,0,1-1.77,3.135,6.545,6.545,0,0,1-1.238,1.03,6.736,6.736,0,0,1-1.858.719,5.349,5.349,0,0,1-2.543.155.963.963,0,0,1-.851-.82,1.441,1.441,0,0,1,.188-.708c.166-.344.365-.675.553-1a8.125,8.125,0,0,0,1.05-2.126,4.292,4.292,0,0,0-.111-2.713,4.758,4.758,0,0,0-.476-.952,1.7,1.7,0,0,0-.133-.166,6.956,6.956,0,0,0-4.357-2.06.932.932,0,0,1-.586-.233.618.618,0,0,1-.1-.188c-.121-.442.431-.874.708-1.163a6.913,6.913,0,0,1,7.94-1.163,7.237,7.237,0,0,1,3.141,3.267c.1.2.188.4.277.6s.144.365.21.565a6.533,6.533,0,0,1,.277,1.34,6.45,6.45,0,0,1-.321,2.481" transform="translate(-143.479 -30.887)" fill="#6f9fc4"/>
      <path id="Path_5606" data-name="Path 5606" d="M340.983,273.937a8.977,8.977,0,0,1-1.77,3.135,6.547,6.547,0,0,1-1.238,1.03,6.736,6.736,0,0,1-1.858.719,5.35,5.35,0,0,1-2.543.155.963.963,0,0,1-.851-.82,1.44,1.44,0,0,1,.188-.708c.166-.344.365-.675.553-1a8.12,8.12,0,0,0,1.05-2.126,4.292,4.292,0,0,0-.111-2.713,4.759,4.759,0,0,0-.476-.952,1.7,1.7,0,0,0-.133-.166,1.533,1.533,0,0,1,.221.067,6.109,6.109,0,0,0,1.26.266,6.514,6.514,0,0,0,2.566-.288,4.941,4.941,0,0,0,.63-.244,7.626,7.626,0,0,0,2.067-1.34c.1.2.188.4.277.6s.144.365.21.565a6.535,6.535,0,0,1,.277,1.34,6.451,6.451,0,0,1-.321,2.481" transform="translate(-145.113 -32.525)" fill="#4b4d7e"/>
      <path id="Path_5607" data-name="Path 5607" d="M348.518,303.24a1,1,0,0,0,.537-.369,8.213,8.213,0,0,0,1.111-1.394,2.769,2.769,0,0,0,.417-1.705.4.4,0,0,0-.035-.137c-.071-.139-.256-.163-.411-.164-.371,0-.743.019-1.112-.019a1.931,1.931,0,0,1-1.03-.381c-.106-.086-.235-.2-.36-.142a.3.3,0,0,0-.126.128,2.6,2.6,0,0,0-.018,1.993q.191.732.383,1.463c.086.328.192.8.645.727" transform="translate(-149.351 -41.205)" fill="#ffaf40"/>
      <path id="Path_5608" data-name="Path 5608" d="M388.024,279.9c-.137.337-.757.232-.883.568a1.764,1.764,0,0,0-.042.326c-.063.368-.483.516-.841.568a1.069,1.069,0,0,0-.641.263.338.338,0,0,0-.053.074c-.052.074-.094.148-.147.221a.986.986,0,0,1-.473.284,20.988,20.988,0,0,1-8.174.979,4.19,4.19,0,0,0-1.912.136c-.263.116-.515.295-.767.432-.515.284-1.029.558-1.555.81-1.061.536-2.143,1.031-3.236,1.494-2.353.989-4.749,1.852-7.155,2.693-1.156.4-9.708,4.062-12.818,4.5a4.729,4.729,0,0,1-1.335.042,1.8,1.8,0,0,1-1.355-.862,2.694,2.694,0,0,1,.126-2.126c.253-.737.5-1.484.757-2.22a2.189,2.189,0,0,1,.788-1.252,2.317,2.317,0,0,1,.935-.241c.084-.011.294-.063.609-.148,3.236-.82,17.358-5.04,18.461-5.461,1.439-.558,2.889-1.063,4.35-1.568.409-.147.819-.294,1.24-.442a1.754,1.754,0,0,0,.987-.558,7.63,7.63,0,0,1,.967-1.189,9.192,9.192,0,0,1,1.828-1.273,7.258,7.258,0,0,0,1.8-1.084,2.654,2.654,0,0,1,.441-.41.551.551,0,0,1,.567-.021c.231.168.189.526.116.8a2.375,2.375,0,0,1-.882,1.515c-.231.137-.494.2-.725.316a.824.824,0,0,0-.515.558c2.2.116,4.413-.263,6.609-.011a1.744,1.744,0,0,1,1.428.684.372.372,0,0,1,.053.21c-.021.158-.221.232-.379.264a40.673,40.673,0,0,1-4.245.2.86.86,0,0,0-.7.316,2.425,2.425,0,0,0,1.4.021,20.759,20.759,0,0,1,4.644-.021,1.328,1.328,0,0,1,.535.126.424.424,0,0,1,.2.484" transform="translate(-149.108 -34.094)" fill="#ffcfb3"/>
      <path id="Path_5609" data-name="Path 5609" d="M385.565,284.692c-.052.074-.094.147-.147.221a.992.992,0,0,1-.473.284,20.99,20.99,0,0,1-8.175.979,4.192,4.192,0,0,0-1.912.136c-.262.116-.514.295-.767.432-.515.284-1.03.558-1.555.81-1.061.537-2.143,1.031-3.236,1.494-2.354.989-4.749,1.852-7.156,2.693-1.155.4-9.708,4.062-12.818,4.5a4.722,4.722,0,0,1-1.334.042,1.8,1.8,0,0,1-1.355-.863,2.692,2.692,0,0,1,.126-2.125c.252-.737.5-1.484.756-2.22a2.189,2.189,0,0,1,.788-1.252,2.331,2.331,0,0,1,.936-.242c.084-.01.294-.063.609-.147a4.849,4.849,0,0,0-.935,2c-.231,1.557.883,2.252,2.312,2.357a8.888,8.888,0,0,0,3.3-.516c2.06-.61,4.077-1.357,6.1-2.1a79.6,79.6,0,0,0,9.173-3.851,25.879,25.879,0,0,1,3.887-1.872,19.583,19.583,0,0,1,6.073-.695l5.8-.063" transform="translate(-149.108 -37.084)" fill="#ffbf99"/>
      <path id="Path_5610" data-name="Path 5610" d="M346.674,290.937a2.422,2.422,0,0,0-1.2,1.242,8.718,8.718,0,0,0-.893,2.178c-.042.158-.074.316-.1.474a8.305,8.305,0,0,0,.168,4.125c.074.273.168.526.242.8a3.635,3.635,0,0,1,.136.947.869.869,0,0,1-.641-.179,1.95,1.95,0,0,0-.682-.189,5.772,5.772,0,0,0-1.409.094,25.259,25.259,0,0,0-3.015.874,3.032,3.032,0,0,1-2.385.021,2.518,2.518,0,0,1-1.009-1.431,10.088,10.088,0,0,1-.316-4.157,9.945,9.945,0,0,1,.473-2.61,5.963,5.963,0,0,1,.294-.7,4.025,4.025,0,0,1,1.209-1.442,4.406,4.406,0,0,1,2.353-.81,11.666,11.666,0,0,1,2.175.148.616.616,0,0,0,.137.021c1.492.2,2.984.4,4.465.6" transform="translate(-145.92 -38.668)" fill="#ffaf40"/>
      <path id="Path_5611" data-name="Path 5611" d="M345.025,301.624a.872.872,0,0,1-.641-.179,1.949,1.949,0,0,0-.683-.19,5.737,5.737,0,0,0-1.408.1,25.387,25.387,0,0,0-3.015.873,3.029,3.029,0,0,1-2.385.021,2.522,2.522,0,0,1-1.009-1.431,10.074,10.074,0,0,1-.316-4.156,9.939,9.939,0,0,1,.473-2.61,5.935,5.935,0,0,1,.294-.705,1.2,1.2,0,0,0,.168.327,4.42,4.42,0,0,0,.746.789,5.709,5.709,0,0,0,1.923,1.041,9.948,9.948,0,0,0,3.572.389c.578-.021,1.156-.062,1.734-.136a8.306,8.306,0,0,0,.168,4.125c.073.273.168.526.242.8a3.632,3.632,0,0,1,.136.947" transform="translate(-145.92 -39.591)" fill="#ff8340"/>
      <path id="Path_5612" data-name="Path 5612" d="M276.567,297.843a30.814,30.814,0,0,1-1.659,3.311,7.651,7.651,0,0,0-.785,1.285,5.99,5.99,0,0,1-1.172,1.927,14.143,14.143,0,0,1-2.565,2.082,33.566,33.566,0,0,1-4.987,2.824,29.014,29.014,0,0,1-9.135,2.127c-.984.1-1.968.177-2.953.221-.487.023-.973.045-1.46.045-.73.022-1.471.011-2.2,0a7.423,7.423,0,0,0-1.847-.067,4.028,4.028,0,0,0-.6.255,5,5,0,0,1-1.648.454,4.288,4.288,0,0,0-1.98.343,3.744,3.744,0,0,0-1.183,1.44,1.678,1.678,0,0,0-.155,1.461,1.842,1.842,0,0,1-1.04-.011,1.909,1.909,0,0,1-1.15-.875,1.307,1.307,0,0,1-1.272-.288.893.893,0,0,0-.221-.188,1.134,1.134,0,0,0-.343-.078c-.487-.133-.6-.819-1.028-1.085a1.113,1.113,0,0,1-.232-.166.609.609,0,0,1-.078-.421,4.581,4.581,0,0,1,.719-2.348,4.43,4.43,0,0,1,1.194-1.075,1.032,1.032,0,0,1,.575-.244c.254-.011.5.033.763.045,1.116.055,2.277-.011,3.394-.055q1.792-.083,3.583-.266c1.316-.143,2.587-.343,3.882-.609,1.426-.3,2.853-.587,4.258-1.008a27.256,27.256,0,0,0,7.851-3.943c.73-.5,1.448-1.041,2.134-1.595.3-.244.6-.487.885-.731a10.522,10.522,0,0,0,1.36-1.44c.421-.521.819-1.063,1.228-1.561.044-.055.1-.122.155-.189a53.8,53.8,0,0,1,3.826-4.1A31.707,31.707,0,0,0,274.2,297.2c.188.421.73,1.163,1.216,1.218a2.411,2.411,0,0,0,1.15-.576" transform="translate(-117.246 -39.585)" fill="#ffcfb3"/>
      <path id="Path_5613" data-name="Path 5613" d="M274.725,306.725a14.129,14.129,0,0,1-2.565,2.082,33.566,33.566,0,0,1-4.987,2.824,29,29,0,0,1-9.135,2.127c-.984.1-1.969.177-2.953.222-.487.022-.973.044-1.46.044-.731.022-1.471.011-2.2,0a7.426,7.426,0,0,0-1.847-.066,4.033,4.033,0,0,0-.6.254,4.987,4.987,0,0,1-1.648.454,4.277,4.277,0,0,0-1.98.344,3.739,3.739,0,0,0-1.184,1.44,1.682,1.682,0,0,0-.155,1.462,1.84,1.84,0,0,1-1.039-.011,5.757,5.757,0,0,1,.962-2.038,3.854,3.854,0,0,1,.777-.81c.3-.214.307-.484.332-.849a1.716,1.716,0,0,1,.463-1.177,1.082,1.082,0,0,1,.933-.255,4.232,4.232,0,0,1,.853.387,4.356,4.356,0,0,0,2.563-.092c.908-.14,1.823-.215,2.739-.283,4.666-.343,9.532-.321,13.723-2.4a4.851,4.851,0,0,0,1.614-1.141,2.159,2.159,0,0,0,.553-1.827c-.166-.831-.9-1.406-1.205-2.182a3.645,3.645,0,0,1-.277-1.529c.3-.244.6-.487.884-.731a10.524,10.524,0,0,0,1.36-1.439,3.312,3.312,0,0,1,1.482.044,5.513,5.513,0,0,1,3.86,4.053,6.106,6.106,0,0,1,.133,1.1" transform="translate(-119.021 -41.945)" fill="#ffbf99"/>
      <path id="Path_5614" data-name="Path 5614" d="M245.695,318.205c-.093.475.116.964.053,1.443-.082.621-.6,1.124-.651,1.749a.454.454,0,0,0,.065.305.392.392,0,0,0,.5.057,1.489,1.489,0,0,0,.382-.392,9.851,9.851,0,0,1,1.016-.982,3.075,3.075,0,0,0,.841-1.122,1.569,1.569,0,0,0-.735-1.884c-.571-.389-1.359.249-1.472.827" transform="translate(-119.637 -46.52)" fill="#ffcfb3"/>
      <path id="Path_5615" data-name="Path 5615" d="M288.712,287.1c-.309.82-.663,1.628-.94,2.448-.233.72-.542,1.44-.708,2.181-.122.565-.243,1.119-.354,1.683-.155.764-.31,1.529-.443,2.281-.287,1.551-.52,3.112-.674,4.685a13.511,13.511,0,0,0-.177,2.314,14.135,14.135,0,0,1,.121,1.938,15.815,15.815,0,0,1-1.725-.321,10.268,10.268,0,0,1-2.2-.808,5.4,5.4,0,0,1-.553-.3,7.033,7.033,0,0,1-3.041-3.511,1.446,1.446,0,0,1,.254-1.595c.387-.631.686-1.34,1.051-1.994a22.941,22.941,0,0,1,2.51-3.732,25.469,25.469,0,0,1,6.878-5.272" transform="translate(-129.169 -37.783)" fill="#ff8d85"/>
      <g id="Group_35742" data-name="Group 35742" transform="translate(152.443 252.233)" style="mix-blend-mode: multiply;isolation: isolate">
        <g id="Group_35741" data-name="Group 35741">
          <g id="Group_35740" data-name="Group 35740" clip-path="url(#clip-path-8)">
            <path id="Path_5616" data-name="Path 5616" d="M287.5,291.2c-.652,4.773-1.283,9.558-2.157,14.3a10.281,10.281,0,0,1-2.2-.808,24.966,24.966,0,0,1,.564-4.252c.166-.864.354-1.717.586-2.558A19.64,19.64,0,0,1,287.5,291.2" transform="translate(-283.141 -291.204)" fill="#ff7f76"/>
          </g>
        </g>
      </g>
      <path id="Path_5617" data-name="Path 5617" d="M282.274,393.7c-.077.067-.155.122-.233.188l-.63-2.713-.465-2.015c-.067-.266-.122-.543-.177-.809a2.467,2.467,0,0,1,.8-.277,1.382,1.382,0,0,1,.841.288,2.49,2.49,0,0,1,.8.919,3.266,3.266,0,0,1,.3,1.262,3.626,3.626,0,0,1-1.228,3.156" transform="translate(-130.009 -67.036)" fill="#874e6e"/>
      <g id="Group_35745" data-name="Group 35745" transform="translate(150.762 321.039)" style="mix-blend-mode: multiply;isolation: isolate">
        <g id="Group_35744" data-name="Group 35744">
          <g id="Group_35743" data-name="Group 35743" clip-path="url(#clip-path-9)">
            <path id="Path_5618" data-name="Path 5618" d="M282.274,393.7c-.077.067-.155.122-.233.188l-.63-2.713-.465-2.015c-.067-.266-.122-.543-.177-.809a2.467,2.467,0,0,1,.8-.277,1.382,1.382,0,0,1,.841.288,2.49,2.49,0,0,1,.8.919,3.266,3.266,0,0,1,.3,1.262,3.626,3.626,0,0,1-1.228,3.156" transform="translate(-280.771 -388.075)" fill="#874e6e"/>
          </g>
        </g>
      </g>
      <path id="Path_5619" data-name="Path 5619" d="M289.389,338.551a.764.764,0,0,1-.221.31,15.788,15.788,0,0,1-3.506,2.381c-1.846,1-3.715,1.949-5.639,2.8a5.6,5.6,0,0,0-.885-1.429,5.23,5.23,0,0,0-1.46-1.229l-1.394-.809-.066-.044a6.492,6.492,0,0,0,1.891-4.286,10.542,10.542,0,0,0-.653-3.4c1.382-1,2.621-1.872,3.417-2.425.387-.277.775-.543,1.161-.82.288-.2.564-.41.84-.609v-.011c.221-.156.443-.321.664-.488.277-.2.542-.4.807-.609.1-.077.21-.155.309-.232a2.483,2.483,0,0,1,3.926.421,2.242,2.242,0,0,1,.265.82,16.143,16.143,0,0,1,.033,2.292v.144c.011,1.34-.045,2.691.044,4.032a13.6,13.6,0,0,0,.21,1.771c.055.3.122.6.2.886,0,.022.011.033.011.055a.784.784,0,0,1,.045.476" transform="translate(-128.685 -49.306)" fill="#fcf2de"/>
      <path id="Path_5620" data-name="Path 5620" d="M289.416,338.551a.764.764,0,0,1-.221.31,15.79,15.79,0,0,1-3.506,2.381c-1.846,1-3.715,1.949-5.639,2.8a5.6,5.6,0,0,0-.885-1.429,5.229,5.229,0,0,0-1.46-1.229l-1.394-.809c.045-.033.1-.077.144-.11,1.825-1.407,3.915-2.659,4.9-4.718.918-1.938.465-4.1.708-6.146.288-.2.564-.41.84-.609v-.011c.221-.156.443-.321.664-.488.277-.2.542-.4.807-.609.1-.077.21-.155.309-.232a2.483,2.483,0,0,1,3.926.421,2.243,2.243,0,0,1,.265.82,16.143,16.143,0,0,1,.033,2.292v.144c.011,1.34-.045,2.691.044,4.032a13.6,13.6,0,0,0,.21,1.771c.055.3.122.6.2.886,0,.022.011.033.011.055a.783.783,0,0,1,.045.476" transform="translate(-128.712 -49.306)" fill="#dad1c0"/>
      <path id="Path_5621" data-name="Path 5621" d="M306.1,339.912a5.973,5.973,0,0,1-1.283,2.769,3.438,3.438,0,0,1-.387.421,8.975,8.975,0,0,1-1.8,1.163c-.9.487-1.78.985-2.687,1.472-.707.388-1.415.776-2.134,1.152a73.983,73.983,0,0,1-7.288,3.422c-1.238.487-2.5.919-3.771,1.306-.984.288-2.488.388-3.141,1.307a2.276,2.276,0,0,0-.221,1.063c-.033.288-.055.565-.077.853-.265,2.791-.42,5.571-.7,8.35-.265,2.58-.509,5.139-.52,7.719v.731a3.04,3.04,0,0,1-.089,1.007,2.1,2.1,0,0,1-.906,1.075l-.465-2.016c-.067-.266-.122-.543-.177-.808a38.477,38.477,0,0,1-.652-4.607,36.412,36.412,0,0,1,.165-7.442l.011-.089a27.172,27.172,0,0,1,.387-3.134l1.05-8.484a5.468,5.468,0,0,0-1.272-4.252,28.319,28.319,0,0,0,4.324-3.621,3.846,3.846,0,0,0,1-1.407,4.039,4.039,0,0,0-.233-1.827c-.177-.908-.354-1.806-.542-2.713-.111-.565-.221-1.152-.343-1.717a9.116,9.116,0,0,1-.177-1.34,2.485,2.485,0,0,1,.376-1.5.471.471,0,0,1,.1-.155,2.09,2.09,0,0,1,1.017-.687c1.283-.387,2.9.433,4.192,1.241.531.332,1.006.653,1.382.9a17.222,17.222,0,0,0,1.581.9,19.825,19.825,0,0,0,2.51,1.019c.011.011.011,0,.011,0,.265.089.531.178.807.255a35.059,35.059,0,0,0,3.417.808h.011c1.869.354,3.76.62,5.629.908a1.915,1.915,0,0,1,.6.167.362.362,0,0,1,.133.066,1.611,1.611,0,0,1,.542,1.107,12.1,12.1,0,0,1-.376,4.618" transform="translate(-129.694 -49.582)" fill="#fcf2de"/>
      <path id="Path_5622" data-name="Path 5622" d="M306.148,339.912a5.973,5.973,0,0,1-1.283,2.769,3.44,3.44,0,0,1-.387.421,8.976,8.976,0,0,1-1.8,1.163c-.9.487-1.78.985-2.687,1.472-.707.388-1.415.776-2.134,1.152a73.968,73.968,0,0,1-7.288,3.422c-1.238.487-2.5.919-3.771,1.306-.984.288-2.488.388-3.141,1.307a2.276,2.276,0,0,0-.221,1.063c-.033.288-.055.565-.077.853-.265,2.791-.42,5.571-.7,8.35-.265,2.58-.509,5.139-.52,7.719v.731a3.041,3.041,0,0,1-.089,1.007,2.1,2.1,0,0,1-.906,1.075l-.465-2.016c-.067-.266-.122-.543-.177-.808a38.483,38.483,0,0,1-.652-4.607c0-1.374.011-2.747.044-4.12.022-1.107.055-2.215.121-3.322l.011-.089a27.166,27.166,0,0,1,.387-3.134c.033-.2.066-.388.111-.587a9.589,9.589,0,0,1,2.687-5.371,13.182,13.182,0,0,1,3.76-2.038q4.1-1.71,8.028-3.765c.587-.3,1.272-.764,1.228-1.44-.044-.531-.542-.908-1-1.2-1.382-.874-2.809-1.661-4.192-2.525-.221-.133-.431-.266-.653-.41-.663-.42-1.326-.852-1.957-1.306-.011,0-.011,0-.011-.011-.088-.067-.166-.133-.254-.188a2.091,2.091,0,0,0-.266-.2c-.011-.011-.022-.022-.022-.033-.21-.156-.409-.322-.608-.487-.233-.2-.465-.4-.686-.621a1.381,1.381,0,0,1-.133-.121,1.874,1.874,0,0,1-.144-.144,11.386,11.386,0,0,1-1.57-1.86c-.111-.565-.221-1.152-.343-1.717a9.12,9.12,0,0,1-.177-1.34,2.485,2.485,0,0,1,.376-1.5.472.472,0,0,1,.1-.155,2.09,2.09,0,0,1,1.017-.687c1.283-.387,2.9.433,4.192,1.241.531.332,1.006.653,1.382.9a17.214,17.214,0,0,0,1.581.9,19.829,19.829,0,0,0,2.51,1.019c.011.011.011,0,.011,0,.265.089.531.178.807.255a35.06,35.06,0,0,0,3.417.808h.011c1.869.354,3.76.62,5.629.908a1.915,1.915,0,0,1,.6.167.361.361,0,0,1,.133.066,1.611,1.611,0,0,1,.542,1.107,12.1,12.1,0,0,1-.376,4.618" transform="translate(-129.742 -49.582)" fill="#dad1c0"/>
      <path id="Path_5623" data-name="Path 5623" d="M309.083,303.174a52.554,52.554,0,0,0-1.384,10.172c.022,2.415.435,4.8.592,7.2a30.458,30.458,0,0,1-.279,6.908,5.674,5.674,0,0,1-1.183,2.762.96.96,0,0,1-.223.2.853.853,0,0,1-.413.067,5.144,5.144,0,0,1-2.155-.48,14.056,14.056,0,0,1-2.924-2.247,17.3,17.3,0,0,0-5.883-3.309c-1.027-.335-2.1-.581-3.136-.906a9.814,9.814,0,0,1-2.59-1.163,12.565,12.565,0,0,1-2.076-2.079,8.406,8.406,0,0,1-1.641-2.492,1.718,1.718,0,0,1-.167-1.017,1.843,1.843,0,0,1,.369-.682,9.437,9.437,0,0,0,1.294-2.247c.911-2.466-.114-4.973-.711-7.355a32.368,32.368,0,0,1-.8-7.975,20.846,20.846,0,0,1,.482-4.979,14.56,14.56,0,0,1,2.221-5.025,8.706,8.706,0,0,1,3.8-2.388,7.19,7.19,0,0,1,4.219-.425,10.638,10.638,0,0,1,2.545,1.073q4.94,2.616,9.622,5.657c1,.671,1.105,1.531,1.172,2.671a32.727,32.727,0,0,1-.748,8.06" transform="translate(-131.412 -37.336)" fill="#ff7f76"/>
      <g id="Group_35748" data-name="Group 35748" transform="translate(160.683 256.376)" style="mix-blend-mode: multiply;isolation: isolate">
        <g id="Group_35747" data-name="Group 35747">
          <g id="Group_35746" data-name="Group 35746" clip-path="url(#clip-path-10)">
            <path id="Path_5624" data-name="Path 5624" d="M310.956,323.87a30.457,30.457,0,0,1-.279,6.908,5.673,5.673,0,0,1-1.184,2.761.942.942,0,0,1-.223.2.846.846,0,0,1-.414.068,5.13,5.13,0,0,1-2.154-.481,14.076,14.076,0,0,1-2.924-2.247,17.329,17.329,0,0,0-5.883-3.309c-1.027-.335-2.1-.581-3.137-.9a5.514,5.514,0,0,1,.949-1.319,16.657,16.657,0,0,1,4.253-2.6,11.028,11.028,0,0,0,2.478-1.621c.58-.548.268-1.364.268-2.113,0-2.1.067-4.2.179-6.293a39.144,39.144,0,0,1,1.15-8.305c.178-.626.379-1.241.613-1.845a15.179,15.179,0,0,1,3.427-5.422.819.819,0,0,1,.625-.3c.368.079.636.872.8,1.163a9.143,9.143,0,0,1,.826,1.99,58.307,58.307,0,0,1,1.417,6.305,52.639,52.639,0,0,0-1.384,10.172c.022,2.414.435,4.8.591,7.2" transform="translate(-294.759 -297.037)" fill="#ff7f76"/>
          </g>
        </g>
      </g>
      <path id="Path_5625" data-name="Path 5625" d="M321.715,382.872a6.346,6.346,0,0,1-1.426,1.783,8.2,8.2,0,0,0-1.117,1.5,11.521,11.521,0,0,1-1.072,1.772,4.781,4.781,0,0,1-1.184,1.03,10.664,10.664,0,0,1-4.313,1.672,3.969,3.969,0,0,1-1.448-.011,2.021,2.021,0,0,1-.332-.122,1.453,1.453,0,0,1-.431-.266.307.307,0,0,1-.133-.133.906.906,0,0,1-.265-.421c-.609-2.137,1.5-3.931,2.753-5.338a13.916,13.916,0,0,0,.973-1.163,11.2,11.2,0,0,0,1.7-3.411c.011-.033.022-.077.033-.111,0-.011.011-.022.011-.033a2.031,2.031,0,0,1,.652-1.229,3.875,3.875,0,0,1,1.382-.7,3.289,3.289,0,0,1,1.349-.089,2.928,2.928,0,0,1,1.67.776l.055.055a4.271,4.271,0,0,1,.984,1.694,3.943,3.943,0,0,1,.155,2.747" transform="translate(-138.474 -63.991)" fill="#ff7f76"/>
      <g id="Group_35751" data-name="Group 35751" transform="translate(172.343 313.579)" style="mix-blend-mode: multiply;isolation: isolate">
        <g id="Group_35750" data-name="Group 35750">
          <g id="Group_35749" data-name="Group 35749" clip-path="url(#clip-path-11)">
            <path id="Path_5626" data-name="Path 5626" d="M322.1,382.877a6.271,6.271,0,0,1-1.429,1.779,8.68,8.68,0,0,0-1.113,1.494,12.106,12.106,0,0,1-1.072,1.779,5.005,5.005,0,0,1-1.187,1.021,10.666,10.666,0,0,1-4.308,1.673,3.743,3.743,0,0,1-1.45-.01,2.629,2.629,0,0,1-.336-.116,22.865,22.865,0,0,0,3.173-1.126,8.446,8.446,0,0,0,2.5-1.59,9.225,9.225,0,0,0,2.364-5.25,1.291,1.291,0,0,0-.189-1.136,1.025,1.025,0,0,0-.462-.263c-.483-.148-.987-.2-1.471-.326a1.59,1.59,0,0,1-1.282-1.158c0-.011.011-.021.011-.031a2.1,2.1,0,0,1,.662-1.232,4.042,4.042,0,0,1,1.377-.694,3.209,3.209,0,0,1,3.078.737,4.377,4.377,0,0,1,.977,1.7,3.888,3.888,0,0,1,.158,2.746" transform="translate(-311.199 -377.571)" fill="#ff7f76"/>
          </g>
        </g>
      </g>
      <path id="Path_5627" data-name="Path 5627" d="M331.415,337.149a17.675,17.675,0,0,1-3.981,3.311,78.188,78.188,0,0,1-6.746,4.02c-.763.42-1.5.852-2.245,1.318-.553.344-1.316.908-1.25,1.661a8.277,8.277,0,0,0,.42,1.418c.243.864.5,1.716.741,2.569a25.83,25.83,0,0,1,1.062,4.43c.188,1.639.277,3.3.4,4.95a3.028,3.028,0,0,1-.144,1.573,1.874,1.874,0,0,1-.431.587,3.135,3.135,0,0,1-.608.432,4.542,4.542,0,0,1-3.041.487,1.624,1.624,0,0,1-1.26-1.252c-.211-.8-4.6-9.69-5.806-12.348a11.733,11.733,0,0,1-1.051-3.145,5.435,5.435,0,0,1,.968-4.041,36.758,36.758,0,0,0,2.66-3.848,21.168,21.168,0,0,0,1.782-3.153,18.523,18.523,0,0,0,1.174-5.8q.084-1.062.137-2.127a7.883,7.883,0,0,0,.039-2.121,29.13,29.13,0,0,1-.909-3.664c-.033-.277-.067-.553-.089-.83a2.277,2.277,0,0,0,.631.709,9.184,9.184,0,0,0,3.959,1.595,13.735,13.735,0,0,0,3.627-.045c.465-.055.929-.133,1.4-.21a16.086,16.086,0,0,0,3.439-1,5.3,5.3,0,0,0,2.112-1.584,15.276,15.276,0,0,1,4.39,8.561c.431,2.525.287,5.449-1.382,7.542" transform="translate(-137.757 -47.617)" fill="#fcf2de"/>
      <path id="Path_5628" data-name="Path 5628" d="M333.8,337.149a17.673,17.673,0,0,1-3.981,3.311,78.193,78.193,0,0,1-6.746,4.02c-.763.42-1.5.852-2.245,1.318-.553.344-1.316.908-1.25,1.661a8.285,8.285,0,0,0,.42,1.418c.243.864.5,1.716.741,2.569a25.822,25.822,0,0,1,1.062,4.43c.188,1.639.277,3.3.4,4.95a3.029,3.029,0,0,1-.144,1.573,1.874,1.874,0,0,1-.431.587,2.864,2.864,0,0,1-.6.42q-1.675-7.226-3.339-14.464a8.083,8.083,0,0,1-.3-2.347,6.522,6.522,0,0,1,2.51-4.02c2.289-2.016,4.987-3.511,7.454-5.294a8.484,8.484,0,0,0,3.163-3.488c1.05-2.658-.663-5.858-3.24-7.077a22.085,22.085,0,0,0-5.187-1.251c-2.51-.52-5.01-1.218-6.38-3.056-.033-.277-.067-.553-.089-.83a2.278,2.278,0,0,0,.63.709,9.185,9.185,0,0,0,3.959,1.595,13.735,13.735,0,0,0,3.627-.045c.465-.055.929-.133,1.4-.21a16.087,16.087,0,0,0,3.439-1,5.3,5.3,0,0,0,2.112-1.584,15.276,15.276,0,0,1,4.39,8.561c.431,2.525.287,5.449-1.382,7.542" transform="translate(-140.141 -47.617)" fill="#dad1c0"/>
      <path id="Path_5629" data-name="Path 5629" d="M303.536,285.945a1.784,1.784,0,0,1-.614.906,17.41,17.41,0,0,1-6.329,4.113,3.351,3.351,0,0,1-1.4.246h-.023a1.112,1.112,0,0,1-.781-.436,1.091,1.091,0,0,1-.078-.839,14.426,14.426,0,0,0,.681-2.28c.033-.906-.548-1.654-.57-2.548a4.191,4.191,0,0,1,.96-2.638,18.635,18.635,0,0,1,2.8-2.583c.312-.268.613-.548.9-.85,0-.011,0-.022.011-.022.19-.19.379-.4.558-.615,0,0,0-.023.011-.023a8.689,8.689,0,0,0,1.138-1.7c.145.436.279.884.391,1.342.569,2.235.826,4.583,1.92,6.606a2.175,2.175,0,0,1,.413,1.319" transform="translate(-133.934 -34.763)" fill="#ffcfb3"/>
      <path id="Path_5630" data-name="Path 5630" d="M303.907,286.485a1.783,1.783,0,0,1-.614.906,17.411,17.411,0,0,1-6.329,4.113,3.351,3.351,0,0,1-1.4.246h-.023a11.543,11.543,0,0,0,2.7-1.923,6.688,6.688,0,0,0,2.109-4.226,7.807,7.807,0,0,0-.267-2.493c-.235-.939-.548-1.867-.748-2.817a1,1,0,0,1,.123-.715c0-.011,0-.022.011-.022a2,2,0,0,1,.323-.436,1.19,1.19,0,0,1,.235-.179s0-.023.011-.023a2.227,2.227,0,0,1,1.529-.357c.569,2.235.826,4.583,1.92,6.606a2.175,2.175,0,0,1,.413,1.319" transform="translate(-134.305 -35.303)" fill="#ffbf99"/>
      <path id="Path_5631" data-name="Path 5631" d="M284.638,272.577a1.385,1.385,0,0,1,.951.452,1.521,1.521,0,0,1,.221.634q.223,1.2.366,2.418a4.452,4.452,0,0,0,.89,2.678,1.3,1.3,0,0,0,.572.364,1.7,1.7,0,0,0,1.041-.143,12.2,12.2,0,0,0,3.24-1.987,15.519,15.519,0,0,0,2.708-2.7,1.72,1.72,0,0,0,.384-.771,1.464,1.464,0,0,0-.385-1.065,3.354,3.354,0,0,0-.989-.836,6.132,6.132,0,0,0-1.823-.577,21.59,21.59,0,0,0-5.587-.467,3.391,3.391,0,0,0-1.347.3,1.923,1.923,0,0,0-.677.587,1.079,1.079,0,0,0-.157.793c.081.246.367.289.592.323" transform="translate(-130.954 -32.984)" fill="#4b4d7e"/>
      <path id="Path_5632" data-name="Path 5632" d="M299.8,274.994a4.388,4.388,0,0,1-.485,2.214,3.068,3.068,0,0,1-.65.948,1.3,1.3,0,0,1-1.053.366,13.482,13.482,0,0,1-.213,2.582,3.184,3.184,0,0,1-.461,1.314,3.073,3.073,0,0,1-1.04.864,21.665,21.665,0,0,1-3,1.4,5.07,5.07,0,0,1-1.6.415,3.314,3.314,0,0,1-.591-.048,2.972,2.972,0,0,1-.627-.2,1.115,1.115,0,0,1-.473-.366,1.6,1.6,0,0,1-.2-.77,8.43,8.43,0,0,0-.461-2.084,1.9,1.9,0,0,0-.579-.923,2.036,2.036,0,0,1-.449-.32.957.957,0,0,1-.177-.6,10.258,10.258,0,0,1,.319-1.977,2.715,2.715,0,0,0-.248-1.93c-.2-.285-.485-.509-.686-.793a2.355,2.355,0,0,1-.367-1.161,3.041,3.041,0,0,1-.012-.462c0-.557-.011-1.149.035-1.705a6.769,6.769,0,0,1,.1-1.539,3.342,3.342,0,0,1,2.08-2.119,5.664,5.664,0,0,1,4.836,1.184l.011.012a11.025,11.025,0,0,1,1.478,2.107,4.689,4.689,0,0,0,.828.983,2.671,2.671,0,0,0,1.4.414,3.9,3.9,0,0,1,1.17.332,2.3,2.3,0,0,1,1.124,1.871" transform="translate(-131.745 -32.227)" fill="#ffcfb3"/>
      <path id="Path_5633" data-name="Path 5633" d="M301.425,275.542a4.388,4.388,0,0,1-.485,2.214,3.069,3.069,0,0,1-.65.947,1.3,1.3,0,0,1-1.053.367,13.472,13.472,0,0,1-.213,2.582,3.183,3.183,0,0,1-.461,1.314,3.073,3.073,0,0,1-1.041.864,21.66,21.66,0,0,1-3,1.4,5.068,5.068,0,0,1-1.6.415,3.311,3.311,0,0,1-.591-.048,6.749,6.749,0,0,0,2.755-2.617,4.92,4.92,0,0,0,.709-2.084,5.414,5.414,0,0,0-.65-2.771c-.426-.864-.981-1.658-1.466-2.487a6.1,6.1,0,0,1-.78-1.776,6.838,6.838,0,0,1,.023-2.5,1.76,1.76,0,0,1,.958-1.362,3.355,3.355,0,0,1,1.371-.178.87.87,0,0,1,.177.012,11.022,11.022,0,0,1,1.478,2.107,4.691,4.691,0,0,0,.828.983,2.672,2.672,0,0,0,1.4.414,3.9,3.9,0,0,1,1.17.332,2.3,2.3,0,0,1,1.123,1.871" transform="translate(-133.371 -32.776)" fill="#ffbf99"/>
      <path id="Path_5634" data-name="Path 5634" d="M300.8,272.088a5.493,5.493,0,0,1-1.241,3,1.028,1.028,0,0,1-.118.119,8.084,8.084,0,0,0-.023-1.409c-.06-.414-.2-.888-.591-1.03a.88.88,0,0,0-.5.012,1.813,1.813,0,0,0-1.064.9,5.833,5.833,0,0,0-.461,1.35c-.166.663-.343,1.326-.509,1.977-.166-.533-.343-1.077-.521-1.61a6.341,6.341,0,0,0-.509-1.492,3.482,3.482,0,0,0-2.222-1.1,1.394,1.394,0,0,1-.65-.237,1.156,1.156,0,0,1-.248-1.125,3.71,3.71,0,0,0-.06-1.35,1.331,1.331,0,0,0-.544-.9.741.741,0,0,0-.413-.131,1.056,1.056,0,0,0-.509.024,12.4,12.4,0,0,0-1.608.734,3.72,3.72,0,0,1-1.348.2,1.873,1.873,0,0,1-.923-.178c-1.324-.747-.106-3.138.461-3.955a9.143,9.143,0,0,1,2.258-2.178,7.246,7.246,0,0,1,6.61-.758,9.37,9.37,0,0,1,1.62.793c.012,0,.012.012.023.012.473.32.982.569,1.443.912a4.952,4.952,0,0,1,1.8,3.339,13.958,13.958,0,0,1-.154,4.085" transform="translate(-131.571 -30.647)" fill="#483e49"/>
      <g id="Group_35754" data-name="Group 35754" transform="translate(159.554 233.104)" style="mix-blend-mode: multiply;isolation: isolate">
        <g id="Group_35753" data-name="Group 35753">
          <g id="Group_35752" data-name="Group 35752" clip-path="url(#clip-path-12)">
            <path id="Path_5635" data-name="Path 5635" d="M302.838,272.609a5.494,5.494,0,0,1-1.241,3,1.031,1.031,0,0,1-.118.119,8.08,8.08,0,0,0-.023-1.409c-.06-.414-.2-.888-.592-1.03a.879.879,0,0,0-.5.012,1.813,1.813,0,0,0-1.064.9,5.827,5.827,0,0,0-.461,1.35c-.166.663-.343,1.326-.509,1.977-.166-.533-.343-1.078-.521-1.61a6.341,6.341,0,0,0-.509-1.492,3.482,3.482,0,0,0-2.222-1.1,1.393,1.393,0,0,1-.65-.237,1.156,1.156,0,0,1-.248-1.125,3.711,3.711,0,0,0-.06-1.35,1.331,1.331,0,0,0-.544-.9.741.741,0,0,0-.413-.131.281.281,0,0,1,.118-.059c.307-.094.638-.083.945-.154a6.757,6.757,0,0,0,1.478-.556,8.488,8.488,0,0,0,4.043-4.535c.473.32.982.569,1.443.912a4.951,4.951,0,0,1,1.8,3.339,13.957,13.957,0,0,1-.154,4.085" transform="translate(-293.167 -264.273)" fill="#483e49"/>
          </g>
        </g>
      </g>
      <path id="Path_5636" data-name="Path 5636" d="M293.306,289.677a.1.1,0,0,1-.037-.023c.112.113.836-.568.923-.642a7.308,7.308,0,0,0,1.193-1.33,11.9,11.9,0,0,0,.942-1.69,21.869,21.869,0,0,0,1.109-2.657l.525.171a22.191,22.191,0,0,1-1.136,2.727,12.376,12.376,0,0,1-.989,1.769,3.254,3.254,0,0,1-2.431,1.687.262.262,0,0,1-.1-.011" transform="translate(-133.643 -36.691)" fill="#483e49"/>
      <path id="Path_5637" data-name="Path 5637" d="M300.659,272.927a7.26,7.26,0,0,1-.752,1.761,8.093,8.093,0,0,1-1.582,1.794,6.446,6.446,0,0,1-2.621,1.551,1.171,1.171,0,0,1-1.36-.4,1.67,1.67,0,0,1-.177-.864c-.011-.454.011-.908.044-1.362a27.24,27.24,0,0,0,.089-2.846,2.628,2.628,0,0,0-.83-2.049.743.743,0,0,0-.242-.144c-.023-.011-.033-.022-.056-.022a2.88,2.88,0,0,0-1.106-.254,24.586,24.586,0,0,0-3.616-.067c-.288.011-1.57,0-1.891,0-.652-.022-1.3-.055-1.958-.067a1.006,1.006,0,0,1-.321-.033.414.414,0,0,1-.265-.2.837.837,0,0,1-.033-.288v-.122a12.023,12.023,0,0,1,.254-1.517,6.711,6.711,0,0,1,.553-1.373,7.158,7.158,0,0,1,.8-1.163,8.038,8.038,0,0,1,1.1-1.107,9.693,9.693,0,0,1,5.839-2.359,8.753,8.753,0,0,1,5.562,2.115,1.07,1.07,0,0,1,.177.133,5.662,5.662,0,0,1,.53.487,7.329,7.329,0,0,1,1.028,1.274,7.65,7.65,0,0,1,1.018,2.813,10.882,10.882,0,0,1-.177,4.308" transform="translate(-130.943 -30.451)" fill="#6f9fc4"/>
      <path id="Path_5638" data-name="Path 5638" d="M304.426,273.79a7.26,7.26,0,0,1-.752,1.761,8.094,8.094,0,0,1-1.582,1.794,6.446,6.446,0,0,1-2.621,1.551,1.171,1.171,0,0,1-1.36-.4,1.67,1.67,0,0,1-.177-.864c-.011-.454.011-.908.044-1.362a27.273,27.273,0,0,0,.089-2.846,2.628,2.628,0,0,0-.83-2.049.742.742,0,0,0-.243-.144c-.023-.011-.033-.022-.056-.022a4.57,4.57,0,0,0,1.892-.631,5.375,5.375,0,0,0,1.692-1.728,10.645,10.645,0,0,0,1.327-4.076,1.067,1.067,0,0,1,.177.133,5.671,5.671,0,0,1,.531.487,7.334,7.334,0,0,1,1.028,1.274,7.651,7.651,0,0,1,1.018,2.813,10.881,10.881,0,0,1-.177,4.308" transform="translate(-134.71 -31.314)" fill="#4b4d7e"/>
      <path id="Path_5639" data-name="Path 5639" d="M291.327,349.973a.617.617,0,0,0,.038.3.432.432,0,0,0,.361.2,1,1,0,0,0,.882-.506,2.435,2.435,0,0,0,.3-1.016,1.642,1.642,0,0,0-.1-.992,1.554,1.554,0,0,0-.533-.514.825.825,0,0,0-.465-.178.577.577,0,0,0-.46.31,1.635,1.635,0,0,0-.072,1.065,8.93,8.93,0,0,1,.051,1.328" transform="translate(-133.048 -55.214)" fill="#ffbf99"/>
      <path id="Path_5640" data-name="Path 5640" d="M274.142,340.389a1.219,1.219,0,0,0,.5,1.118c.006,0,.006,0,.006.006l8.849,3.265.649-1.165.616-1.1-7.657-5.25H277.1a1.23,1.23,0,0,0-1.224.129,2.742,2.742,0,0,0-.514.386c-.021.021-.034.04-.048.054a3.818,3.818,0,0,0-1.17,2.554" transform="translate(-128.082 -52.284)" fill="#4d7ca7"/>
      <path id="Path_5641" data-name="Path 5641" d="M274.142,340.666a1.219,1.219,0,0,0,.5,1.118c.006,0,.006,0,.006.006l8.849,3.265.649-1.165a.713.713,0,0,0-.155-.088c-2.469-1.145-5.405-1.26-7.61-2.852a3.164,3.164,0,0,1-1.163-1.369,1.673,1.673,0,0,1,.094-1.47,3.818,3.818,0,0,0-1.17,2.554" transform="translate(-128.082 -52.561)" fill="url(#linear-gradient)"/>
      <path id="Path_5642" data-name="Path 5642" d="M286.962,346.363c0,.584.412.819.92.525a2.029,2.029,0,0,0,.921-1.589c0-.584-.412-.82-.921-.526a2.033,2.033,0,0,0-.92,1.59" transform="translate(-131.809 -54.454)" fill="#262424"/>
      <path id="Path_5643" data-name="Path 5643" d="M285.764,346.21a3.328,3.328,0,0,1,1.509-2.605,1.065,1.065,0,0,1,1.062-.111h0l0,0h0l.576.3-2.178,3.656-.529-.266,0,0,0,0a1.052,1.052,0,0,1-.438-.967" transform="translate(-131.461 -54.092)" fill="#f2e4e4"/>
      <path id="Path_5644" data-name="Path 5644" d="M286.5,346.58c0,.957.675,1.343,1.508.861a3.328,3.328,0,0,0,1.509-2.605c0-.957-.675-1.342-1.509-.861a3.329,3.329,0,0,0-1.508,2.605" transform="translate(-131.675 -54.199)" fill="#ccc0c0"/>
      <path id="Path_5645" data-name="Path 5645" d="M287.194,346.816a2.589,2.589,0,0,1,1.172-2.026.829.829,0,0,1,.826-.086h0l8.82,4.545-1.693,2.842-8.784-4.522,0,0h0a.818.818,0,0,1-.34-.752" transform="translate(-131.877 -54.449)" fill="#ebc78c"/>
      <path id="Path_5646" data-name="Path 5646" d="M299.574,353.18c0,.744.525,1.044,1.172.67a2.589,2.589,0,0,0,1.172-2.026c0-.744-.525-1.043-1.172-.67a2.589,2.589,0,0,0-1.172,2.026" transform="translate(-135.476 -56.293)" fill="#d7b680"/>
      <path id="Path_5647" data-name="Path 5647" d="M299.171,336.86a8.335,8.335,0,0,1-.957.292,1.33,1.33,0,0,0-.626.247,2.558,2.558,0,0,0-.752,1.114,7.785,7.785,0,0,0-.508,1.6,2.2,2.2,0,0,0,.021,1.09c.052.139.089.284.144.423.047.07.063.158.113.229a.887.887,0,0,1,.142.219,1.527,1.527,0,0,1-.9-.2,2.3,2.3,0,0,0-.323-.212,1.961,1.961,0,0,0-.611-.057,1.1,1.1,0,0,1-.723-.362.53.53,0,0,0-.14-.132.487.487,0,0,0-.166-.035,1.377,1.377,0,0,1-1.1-.858.236.236,0,0,0-.056-.1.229.229,0,0,0-.1-.04c-.549-.137-.792-.588-1-1.065a4.475,4.475,0,0,1-.325-1.68,6.805,6.805,0,0,1,.394-2.35,4.054,4.054,0,0,1,.374-.849,2.677,2.677,0,0,1,.716-.761,1.276,1.276,0,0,1,.836-.316,17.9,17.9,0,0,0,2.528-.195,9.365,9.365,0,0,0,1.106-.266,5.6,5.6,0,0,0,.675-.343c.5-.255,1-.521,1.5-.786,1.394-.742,2.8-1.485,4.191-2.237,1.184-.642,2.378-1.285,3.55-1.96a2.852,2.852,0,0,0,1.1-.919,3.734,3.734,0,0,0-.044-3,24.38,24.38,0,0,1-.84-3.555c-.122-.621-.233-1.252-.321-1.883a49.606,49.606,0,0,1-.553-5.571c1.46.222,2.9-.4,4.346-.676a5.443,5.443,0,0,0,2.024-.609,3.505,3.505,0,0,0,.166.908c.055.2.121.41.155.587.122.532.232,1.063.354,1.6a24.93,24.93,0,0,1,.653,3c.177,1.784.387,3.566.531,5.361a35.912,35.912,0,0,1,.089,4.873,5.674,5.674,0,0,1-.321,1.971,3.228,3.228,0,0,1-.465.8,3.287,3.287,0,0,1-.962.908,100.363,100.363,0,0,1-10.263,3.754,8.9,8.9,0,0,0-1.714.321,2.236,2.236,0,0,0-1.205,1.019,1.56,1.56,0,0,1-.277.454,1,1,0,0,1-.453.244" transform="translate(-133.071 -44.726)" fill="#ffcfb3"/>
      <path id="Path_5648" data-name="Path 5648" d="M316.758,327.392a5.678,5.678,0,0,1-.321,1.971,3.228,3.228,0,0,1-.465.8,3.269,3.269,0,0,1-.962.908,100.135,100.135,0,0,1-10.262,3.755c-.826.148-1.788.055-2.212.934-.109.226-.173.472-.292.693-.335.62-1.031.933-1.582,1.37a4.352,4.352,0,0,0-1.452,2.257,5.7,5.7,0,0,0-.041,2.7,4.9,4.9,0,0,1-1.236-3.076,6.569,6.569,0,0,1,.816-2.58,5.921,5.921,0,0,1,1.631-2.069,11.152,11.152,0,0,1,3.429-1.794c3.041-1.053,6.325-1.418,9.146-2.98.918-.509,2.1-1.406,1.935-2.6a.408.408,0,0,0-.354-.409c-.718-.266-1.426-.543-2.134-.809a.41.41,0,0,1-.2-.121.173.173,0,0,1-.033-.211.277.277,0,0,1,.133-.055,2.478,2.478,0,0,1,1.47.155,7.857,7.857,0,0,0,.84.321c1.338.343.642-2.281.575-2.846-.188-1.728-.431-3.466-.73-5.194a1.146,1.146,0,0,0-.188-.543,1.191,1.191,0,0,0-1.062-.266c-1.139.077-2.289.166-3.428.254a2.321,2.321,0,0,1-.784-.033,49.63,49.63,0,0,1-.553-5.571c1.46.222,2.9-.4,4.346-.676a5.444,5.444,0,0,0,2.024-.609,3.512,3.512,0,0,0,.166.908c.055.2.121.41.155.587.122.532.232,1.063.354,1.6a24.919,24.919,0,0,1,.653,3c.177,1.783.387,3.566.531,5.36a35.908,35.908,0,0,1,.089,4.873" transform="translate(-134.999 -44.726)" fill="#ffbf99"/>
      <path id="Path_5649" data-name="Path 5649" d="M319.7,309.2c-.031.35-.394.609-.651.813a11.164,11.164,0,0,1-2.037,1.245,8.91,8.91,0,0,1-2.04.7,6.846,6.846,0,0,1-4.429-.48c-.592-.292-.431-.972-.455-1.553q-.073-1.1-.109-2.2a27.444,27.444,0,0,1,.153-4.314,14.277,14.277,0,0,1,2.033-6.065,3.912,3.912,0,0,1,1.718-1.627,3.556,3.556,0,0,1,.737-.212,4.646,4.646,0,0,1,.941-.093,1.662,1.662,0,0,1,1.374.7,8.758,8.758,0,0,1,.918,1.733,17.84,17.84,0,0,1,.906,3.019c.079.386.159.771.239,1.144a29.785,29.785,0,0,1,.668,6c-.008.378.067.813.034,1.189" transform="translate(-138.495 -40.189)" fill="#ff8d85"/>
      <g id="Group_35757" data-name="Group 35757" transform="translate(176.127 255.219)" style="mix-blend-mode: multiply;isolation: isolate">
        <g id="Group_35756" data-name="Group 35756">
          <g id="Group_35755" data-name="Group 35755" clip-path="url(#clip-path-13)">
            <path id="Path_5650" data-name="Path 5650" d="M321.614,309.2c-.031.35-.394.609-.651.813a11.161,11.161,0,0,1-2.037,1.245,10.73,10.73,0,0,1-.016-1.1c.048-4.55.238-9.718-1.979-13.863a6.775,6.775,0,0,1-.4-.792,4.645,4.645,0,0,1,.94-.093,1.662,1.662,0,0,1,1.375.7,8.761,8.761,0,0,1,.918,1.733,17.848,17.848,0,0,1,.906,3.019c.079.386.159.771.239,1.144a29.787,29.787,0,0,1,.668,6c-.008.378.067.813.034,1.189" transform="translate(-316.534 -295.408)" fill="#ff7f76"/>
          </g>
        </g>
      </g>
      <path id="Path_5651" data-name="Path 5651" d="M280.487,366.965,280.1,370.1a27.144,27.144,0,0,1,.387-3.134" transform="translate(-129.814 -60.92)" fill="#4b4d7e"/>
      <path id="Path_5652" data-name="Path 5652" d="M310.831,394.812l-.287.41a.306.306,0,0,1-.133-.133Z" transform="translate(-138.627 -68.987)" fill="#4b4d7e"/>
    </g>
  </g>
</svg>
