<svg xmlns="http://www.w3.org/2000/svg" width="210" height="138" viewBox="0 0 210 138">
  <g id="Group_35869" data-name="Group 35869" transform="translate(-10.328 -28.383)">
    <path id="Path_26536" data-name="Path 26536" d="M774.233,604.226l6.351,22.5H764.912l-6.556-21.983Z" transform="translate(-577.824 -461.122)" fill="#e5976c"/>
    <path id="Path_26537" data-name="Path 26537" d="M768.642,605.867l1.946,5.417,13.518-1.769-2.148-7.859Z" transform="translate(-585.652 -459.165)" fill="#2f2e31"/>
    <g id="Group_35868" data-name="Group 35868" transform="translate(10.328 28.383)">
      <g id="Group_35870" data-name="Group 35870">
        <path id="Path_26538" data-name="Path 26538" d="M501.117,315.28l-13.61-5.42a3.441,3.441,0,0,1-1.9-4.553l13.033-29.2a3.515,3.515,0,0,0,.3-1.277l.381-8.582a.73.73,0,0,0-1.179-.638,3.111,3.111,0,0,0-.615.655c-.871,1.224-1.536,6.07-1.536,6.07l-2.253.459L491.7,278.51l-3.584.816-14.6,23.984a12.478,12.478,0,0,0,5.017,17.615l14.513,7.392Z" transform="translate(-369.68 -230.939)" fill="#e5976c"/>
        <path id="Path_26539" data-name="Path 26539" d="M560.631,467.93l-4.813-2.141L550.625,479.7l2.489,1.268Z" transform="translate(-429.784 -383.718)" fill="#2f2e31"/>
        <path id="Path_26540" data-name="Path 26540" d="M534.078,296.445s-2.355-6.58-1.946-7.753,6.861-.867,7.015,0-3.531,1.734-3.531,1.734,2.1,1.6,1.534,3.349-3.072,2.669-3.072,2.669" transform="translate(-415.653 -247.965)" fill="#e5976c"/>
        <path id="Path_26541" data-name="Path 26541" d="M535.248,280.933c-.17-.009-.643-2.244.432-3.06s7.015-.306,7.066.816-2.451,2.5-7.5,2.244" transform="translate(-417.873 -239.983)" fill="#e5976c"/>
        <path id="Path_26542" data-name="Path 26542" d="M540.392,270.7c-.169-.016-.643-1.838.432-2.506s6.72-.185,7.066.668c.582,1.433-2.152,2.336-7.5,1.838" transform="translate(-421.793 -232.66)" fill="#e5976c"/>
        <path id="Path_26543" data-name="Path 26543" d="M551.454,257.351c-.161.057-1.32-1.525-.588-2.573s6.4-2.881,6.806-2.017-1.463,2.891-6.218,4.59" transform="translate(-429.779 -220.957)" fill="#e5976c"/>
        <path id="Path_26544" data-name="Path 26544" d="M542.657,270.492l3.227,5.683-3.482,8.467-4.1.1-1.07-4.25Z" transform="translate(-419.581 -234.671)" fill="#e5976c"/>
        <path id="Path_26545" data-name="Path 26545" d="M538.328,295.224a.241.241,0,0,1-.091-.018.238.238,0,0,1-.13-.311c1.233-2.976-2.41-4.881-2.447-4.9a.238.238,0,0,1,.046-.441l2.748-.753a.634.634,0,0,0-.2-1.245,50.681,50.681,0,0,0-5.633.438.243.243,0,0,1-.313-.124.234.234,0,0,1,.115-.308,43.271,43.271,0,0,1,5.806-.481,1.11,1.11,0,0,1,.353,2.179l-2.216.607c1.037.691,3.282,2.56,2.184,5.21a.239.239,0,0,1-.221.147" transform="translate(-415.807 -247.32)" fill="#2f2e31"/>
        <path id="Path_26546" data-name="Path 26546" d="M534.289,279.94h-.023a.238.238,0,0,1-.215-.259l.048-.507a2.322,2.322,0,0,1,2.475-2.081l4.6.344a1.185,1.185,0,0,1,1.094,1.174,1.172,1.172,0,0,1-.924,1.149l-.024,0-1.158.138a.238.238,0,1,1-.056-.473l1.145-.136a.7.7,0,0,0,.54-.682.705.705,0,0,0-.652-.7l-4.6-.344a1.841,1.841,0,0,0-1.963,1.651l-.048.507a.238.238,0,0,1-.237.216" transform="translate(-417.153 -239.688)" fill="#2f2e31"/>
        <path id="Path_26547" data-name="Path 26547" d="M553.367,255.412a.238.238,0,0,1-.137-.433l3.435-2.381a.633.633,0,0,0-.556-1.123l-3.976,1.264a2.344,2.344,0,0,0-1.642,2.239.239.239,0,0,1-.478,0,2.819,2.819,0,0,1,1.975-2.693l3.976-1.264a1.109,1.109,0,0,1,.974,1.966L553.5,255.37a.238.238,0,0,1-.136.043" transform="translate(-429.313 -219.761)" fill="#2f2e31"/>
        <path id="Path_26548" data-name="Path 26548" d="M544.662,270.725a.238.238,0,0,1-.038-.473l1.662-.271a.7.7,0,0,0,.584-.6l.023-.17a.7.7,0,0,0-.678-.8l-4.895-.138a1.388,1.388,0,0,0-1.411,1.167l-.109.694a.239.239,0,0,1-.472-.074l.109-.694a1.868,1.868,0,0,1,1.843-1.57h.054l4.895.138a1.178,1.178,0,0,1,1.138,1.335l-.023.17a1.173,1.173,0,0,1-.981,1l-1.662.271a.237.237,0,0,1-.039,0" transform="translate(-421.171 -232.604)" fill="#2f2e31"/>
        <path id="Path_26549" data-name="Path 26549" d="M558.036,242.2a.357.357,0,0,1-.315-.526l9.678-17.943a.358.358,0,0,1,.631.338l-9.678,17.942a.358.358,0,0,1-.316.188" transform="translate(-435.158 -198.85)" fill="#2f2e31"/>
        <path id="Path_26550" data-name="Path 26550" d="M577.553,185.441l-.845-6.044,3.917,4.437,6.759-3.29-4.148,5.432,6.068,2.372-6.375.612,1,6.273-3.764-3.443-1.046,4.437-.874-4.514-6.221,1.454,3.917-4.208-3.917-3.672Z" transform="translate(-446.102 -165.081)" fill="#ffb92c"/>
        <path id="Path_26551" data-name="Path 26551" d="M613.821,256.547v3.861l1.383-.542Z" transform="translate(-477.91 -224.017)" fill="#ffb92c"/>
        <path id="Path_26552" data-name="Path 26552" d="M583.114,469.523l-18.141-6.3-6.759,17.541,10.958,6.125.209,32.3h45.056L611.825,502.4l13.825-2.028-8.421-21.294a10.826,10.826,0,0,0-8.013-6.639l-21.048-4.078Z" transform="translate(-435.825 -381.97)" fill="#9aabbb"/>
        <path id="Path_26553" data-name="Path 26553" d="M665.567,436.012a5.918,5.918,0,0,1-11.612-.778c-.018-.151-.031-.306-.035-.462l-.173-5.2,12.3-9.783-.123,6.041-.176,8.865a5.959,5.959,0,0,1-.177,1.319" transform="translate(-508.352 -348.627)" fill="#e5976c"/>
        <path id="Path_26554" data-name="Path 26554" d="M641.92,385.565a3.216,3.216,0,0,1-2.688.71,1.252,1.252,0,0,1-.633-.432l.049-2.487-12.3,9.784.114,3.394a9.948,9.948,0,0,1-2.573-.492,6.843,6.843,0,0,1-3.15-2.127c-4.4-5.149-2.761-16.6-2.372-18.916a12.982,12.982,0,0,0,4.944,1.292c-.086.118-1.775,2.4,1.944,1.845,2.953-.445,6.286-3.872,7.648-5.414.043-.045.083-.091.121-.133s.056-.065.084-.095.051-.059.078-.088c.04-.046.074-.089.112-.127a.676.676,0,0,1,.074-.089c.055-.062.1-.111.125-.148,0-.007.006-.01.012-.017a.021.021,0,0,0,.007-.014.065.065,0,0,1,.017-.02c.006-.006.007-.01.012-.017-.771,3.725,3.025,9.018,3.025,9.018s1.494-3.886,4.77-4a1.971,1.971,0,0,1,1.83,1.081c1.185,2.025.58,6.292-1.254,7.491" transform="translate(-480.963 -312.147)" fill="#e5976c"/>
        <path id="Path_26555" data-name="Path 26555" d="M666.158,431.8c-1.358,3.265-5.32,11.963-11.842,11.421-.017-.151-.03-.306-.035-.462l-.06-1.807c7.394.387,11.581-8.512,12.132-10.683Z" transform="translate(-508.714 -356.602)" fill="#2f2e31"/>
        <path id="Path_26556" data-name="Path 26556" d="M633.428,347.124a1.972,1.972,0,0,0-1.83-1.082c-3.276.115-4.77,4-4.77,4s-3.8-5.293-3.025-9.018c-.006.007-.007.01-.012.017a.065.065,0,0,0-.017.02c-.028.033-.076.1-.145.179a.638.638,0,0,0-.074.089c-.038.038-.073.081-.112.127-.027.029-.051.059-.078.088s-.052.063-.084.094-.078.088-.121.133c-1.362,1.543-4.7,4.969-7.648,5.415-3.719.56-2.03-1.728-1.944-1.845a12.983,12.983,0,0,1-4.944-1.292,7.8,7.8,0,0,1-2.839-2.363c-2.53-3.526,1.453-3.042,1.453-3.042s-1.263-3.125.122-3.2,3.04,1.44,3.04,1.44,4.79-6.721,12.047-5.332,7.795,7.06,7.795,7.06,2.835-.737,3.837,3.09a8.512,8.512,0,0,1-.65,5.428" transform="translate(-471.215 -281.13)" fill="#2f2e31"/>
        <path id="Path_26557" data-name="Path 26557" d="M650.427,420.132h0l-3.407-.022a.357.357,0,0,1-.35-.419l1.244-6.969a.358.358,0,0,1,.706.125l-1.17,6.552,2.982.019a.357.357,0,1,1,0,.714" transform="translate(-502.936 -342.973)" fill="#2f2e31"/>
        <path id="Path_26558" data-name="Path 26558" d="M656.025,450.507a4,4,0,0,1-1.983-.561.357.357,0,1,1,.388-.6,2.762,2.762,0,0,0,3.932-1.01.358.358,0,0,1,.6.384,3.608,3.608,0,0,1-2.26,1.715,3.19,3.19,0,0,1-.682.072" transform="translate(-508.435 -370.235)" fill="#2f2e31"/>
        <path id="Path_26559" data-name="Path 26559" d="M632.905,408.29a1.274,1.274,0,1,1-.926-1.541,1.275,1.275,0,0,1,.926,1.541" transform="translate(-490.539 -338.599)" fill="#2f2e31"/>
        <path id="Path_26560" data-name="Path 26560" d="M669.4,410.406a1.274,1.274,0,1,1-.926-1.541,1.275,1.275,0,0,1,.926,1.541" transform="translate(-518.342 -340.214)" fill="#2f2e31"/>
        <path id="Path_26561" data-name="Path 26561" d="M770.828,568.231a.358.358,0,0,1-.352-.294l-3.328-18.362a.359.359,0,0,1,.706-.127l3.328,18.362a.358.358,0,0,1-.289.415.4.4,0,0,1-.064.005" transform="translate(-594.829 -447.446)" fill="#2f2e31"/>
        <path id="Path_26562" data-name="Path 26562" d="M602.929,530.192a.358.358,0,0,1-.359-.357V519.94a.358.358,0,0,1,.717,0v9.895a.358.358,0,0,1-.358.357" transform="translate(-469.339 -424.754)" fill="#2f2e31"/>
        <path id="Path_26563" data-name="Path 26563" d="M654.149,494.677a.352.352,0,0,1-.121-.021.357.357,0,0,1-.233-.275l-1.545-8.806a.359.359,0,0,1,.695-.17c.061.189,1.549,4.628,5.914,4.512a.351.351,0,0,1,.345.228.356.356,0,0,1-.1.4l-4.721,4.046a.359.359,0,0,1-.234.086m-.8-6.983,1.043,5.945,3.554-3.046a6.508,6.508,0,0,1-4.6-2.9" transform="translate(-507.196 -398.48)" fill="#2f2e31"/>
        <path id="Path_26564" data-name="Path 26564" d="M683.451,496.072a.359.359,0,0,1-.249-.1l-4.624-4.454a.357.357,0,0,1,.22-.612,5.772,5.772,0,0,0,5.234-4.176.358.358,0,0,1,.706.116l-.93,8.906a.359.359,0,0,1-.357.32m-3.84-4.552,3.56,3.429.639-6.117a6.293,6.293,0,0,1-4.2,2.688" transform="translate(-527.171 -399.468)" fill="#2f2e31"/>
        <path id="Path_26565" data-name="Path 26565" d="M675.958,528.1a1.025,1.025,0,1,1-1.025-1.021,1.023,1.023,0,0,1,1.025,1.021" transform="translate(-523.686 -430.448)" fill="#2f2e31"/>
        <path id="Path_26566" data-name="Path 26566" d="M675.958,557.1a1.025,1.025,0,1,1-1.025-1.021,1.023,1.023,0,0,1,1.025,1.021" transform="translate(-523.686 -452.574)" fill="#2f2e31"/>
        <path id="Path_26567" data-name="Path 26567" d="M590.7,531.374l-4.2,5.1,4.2,2.347Z" transform="translate(-457.103 -433.741)" fill="#2f2e31"/>
        <path id="Path_26568" data-name="Path 26568" d="M112.977,370.172S93.315,377.711,90.55,384.5c-2.083,5.114.978,24.573,2.615,33.858a6.048,6.048,0,0,0,5.965,4.987h45.954L137.556,390.7l23.595-7.511a14.183,14.183,0,0,0,8.727-19.2l-11.862-27.1-9.86,2.988,7.066,26.267Z" transform="translate(-78.706 -285.701)" fill="#345776"/>
        <path id="Path_26569" data-name="Path 26569" d="M239.589,678.569l3.8-5.888s12.125-4.134,16.579,5.888Z" transform="translate(-192.831 -540.926)" fill="#e5976c"/>
        <path id="Path_26570" data-name="Path 26570" d="M174.762,582.007a.363.363,0,0,1-.1-.013l-19.535-5.4a4.783,4.783,0,0,1-3.5-4.092l-2.211-19.733a.358.358,0,0,1,.712-.079l2.211,19.733a4.07,4.07,0,0,0,2.978,3.482l19.534,5.4a.357.357,0,0,1-.1.7" transform="translate(-124.043 -449.895)" fill="#2f2e31"/>
        <path id="Path_26571" data-name="Path 26571" d="M281.671,529.089,279.213,518.5,287,527.392Z" transform="translate(-223.008 -423.931)" fill="#2f2e31"/>
        <path id="Path_26572" data-name="Path 26572" d="M276.279,509.35a.358.358,0,0,1-.349-.277l-3.715-16.088a.358.358,0,0,1,.7-.16l3.715,16.088a.357.357,0,0,1-.269.428.365.365,0,0,1-.081.009" transform="translate(-217.667 -404.145)" fill="#2f2e31"/>
        <path id="Path_26573" data-name="Path 26573" d="M320.684,277.852l-4.111-20.9a1.222,1.222,0,0,1,2.239-.874l.028.047c.922,1.607,3.693,6.733,3.693,6.733s8.673.459,8.98,1.454-.969,10.554-.969,10.554Z" transform="translate(-251.459 -223.234)" fill="#e5976c"/>
        <path id="Path_26574" data-name="Path 26574" d="M300.749,204.682l13.595,25.655,2.772-28.7Z" transform="translate(-239.424 -182.024)" fill="#ffb92c"/>
        <path id="Path_26575" data-name="Path 26575" d="M360.321,284.412s-3.968-2.78-5.248-2.525-.768,2.3,1.843,4.08c0,0-3.226,3.264-1.843,6.324s4.631-.112,4.649-.262.6-7.618.6-7.618" transform="translate(-280.286 -243.351)" fill="#e5976c"/>
        <path id="Path_26576" data-name="Path 26576" d="M352.624,248.4l-1.859-1.966a1.665,1.665,0,0,1-.394-1.6,1.093,1.093,0,0,1,1.761-.532l.493.421-1.373-2.252a1.178,1.178,0,0,1,1.831-1.453l.72.7-1.593-3.512a1.295,1.295,0,0,1,2.246-1.268c1.584,2.288,4.342,6.766,3.034,8.554a2.906,2.906,0,0,1,.563,1.224,2.4,2.4,0,0,1-.563,1.479s.723,1.743-.355,2.5-4.509-2.3-4.509-2.3" transform="translate(-277.171 -208.642)" fill="#e5976c"/>
        <path id="Path_26577" data-name="Path 26577" d="M354.487,289.975a.238.238,0,0,1-.237-.213A6.272,6.272,0,0,1,356.593,284a5.532,5.532,0,0,1-2.455-2.506,1.652,1.652,0,0,1,.141-1.333,1.06,1.06,0,0,1,.759-.546c1.151-.218,3.041,1.089,4.426,2.223a2.106,2.106,0,0,1,.762,1.794l-.219,2.814a.236.236,0,0,1-.257.218.238.238,0,0,1-.22-.256l.22-2.814a1.631,1.631,0,0,0-.589-1.389c-1.819-1.49-3.291-2.262-4.034-2.123a.586.586,0,0,0-.431.31,1.177,1.177,0,0,0-.1.963c.391,1.289,2.531,2.4,2.553,2.408a.238.238,0,0,1,.012.417,5.649,5.649,0,0,0-2.435,5.533.238.238,0,0,1-.213.262h-.025" transform="translate(-280.027 -241.608)" fill="#2f2e31"/>
        <path id="Path_26578" data-name="Path 26578" d="M356.826,275.179a.239.239,0,0,1-.219-.333l.387-.884a1.52,1.52,0,0,0-.4-1.765c-.055-.048-.107-.094-.151-.136-.98-.916-3.44-3.077-5.129-3.376a.8.8,0,0,0-.806,1.223l1.014,1.557a.239.239,0,0,1-.4.259l-1.014-1.557a1.276,1.276,0,0,1,1.29-1.951c1.75.309,4.117,2.324,5.373,3.5.041.038.088.08.139.124a1.993,1.993,0,0,1,.519,2.315l-.387.884a.239.239,0,0,1-.219.143" transform="translate(-276.864 -232.91)" fill="#2f2e31"/>
        <path id="Path_26579" data-name="Path 26579" d="M359.407,261.49a.242.242,0,0,1-.079-.014.238.238,0,0,1-.146-.3l.265-.755a1.526,1.526,0,0,0-.221-1.426c-.887-1.179-3.11-3.995-4.6-4.679a.931.931,0,0,0-1.188,1.318l1.14,1.928a.239.239,0,0,1-.412.242l-1.14-1.928a1.407,1.407,0,0,1,1.8-1.992c1.532.7,3.655,3.326,4.783,4.826a2,2,0,0,1,.29,1.869l-.265.755a.239.239,0,0,1-.226.159" transform="translate(-279.091 -221.889)" fill="#2f2e31"/>
        <path id="Path_26580" data-name="Path 26580" d="M317.239,199.414c-.169-.893-3.961-.928-8.468-.079s-8.024,2.261-7.854,3.154,3.961.928,8.468.079,8.024-2.261,7.854-3.154" transform="translate(-239.548 -179.805)" fill="#2f2e31"/>
        <path id="Path_26581" data-name="Path 26581" d="M362.955,245.713a.242.242,0,0,1-.057-.007.238.238,0,0,1-.176-.288l.308-1.261a2.459,2.459,0,0,0-.258-1.816l-3.043-5.2a.95.95,0,0,0-1.7.846l1.369,3.227a.239.239,0,0,1-.44.185l-1.368-3.228a1.428,1.428,0,0,1,2.55-1.271l3.044,5.2a2.932,2.932,0,0,1,.309,2.166l-.308,1.26a.239.239,0,0,1-.232.182" transform="translate(-282.631 -208.496)" fill="#2f2e31"/>
        <path id="Path_26582" data-name="Path 26582" d="M336.573,173.572,335,163.536h4.637Z" transform="translate(-265.502 -152.995)" fill="#cb6845"/>
        <path id="Path_26583" data-name="Path 26583" d="M295.416,153.891l-3.687-9.6-4.3,1.572Z" transform="translate(-229.266 -138.332)" fill="#009983"/>
        <path id="Path_26584" data-name="Path 26584" d="M290.061,184.921,283.9,179.4l-2.158,2.067Z" transform="translate(-224.937 -165.081)" fill="#cb6845"/>
        <path id="Path_26585" data-name="Path 26585" d="M358.482,177.094l2.24-4.344,2.165,2.146Z" transform="translate(-283.394 -160.016)" fill="#ffb92c"/>
        <path id="Path_26586" data-name="Path 26586" d="M141.262,324.657s.361-3.678,6.118-5.61,12.454-.45,16.08,4.54-1.066,11.469-8.3,11.978-5.905.1-5.905.1l-3.009,5.54-4.381.2a13.487,13.487,0,0,1-5.577-9.113c-.75-6.038,4.978-7.629,4.978-7.629" transform="translate(-113.995 -271.121)" fill="#2f2e31"/>
        <path id="Path_26587" data-name="Path 26587" d="M173.752,433.777a9.1,9.1,0,0,0,9.617,1.852,9,9,0,0,0,4.959-4.746l.019-.043-.867-3.495-1.623-6.547L171.9,417.234l.319,2.856.221,1.953Z" transform="translate(-141.151 -346.673)" fill="#e5976c"/>
        <path id="Path_26588" data-name="Path 26588" d="M153.264,386.074a2.972,2.972,0,0,0,2.555.33,1.144,1.144,0,0,0,.528-.471c.845,2.135,6.818,11.384,14.738,7.616a6.37,6.37,0,0,0,2.638-2.331c3.817-5.861-.212-18.031-.212-18.031-7.974,5.928-14.189-.6-14.189-.6,1.154,3.331-1.7,8.644-1.7,8.644s-1.837-3.39-4.861-3.106-1.945,6.766.5,7.944" transform="translate(-125.184 -312.609)" fill="#e5976c"/>
        <path id="Path_26589" data-name="Path 26589" d="M231.683,397.344a1.094,1.094,0,1,0,.617-1.414,1.1,1.1,0,0,0-.617,1.414" transform="translate(-186.736 -330.313)" fill="#2f2e31"/>
        <path id="Path_26590" data-name="Path 26590" d="M199.57,403.527a1.094,1.094,0,1,0,.617-1.414,1.1,1.1,0,0,0-.617,1.414" transform="translate(-162.151 -335.031)" fill="#2f2e31"/>
        <path id="Path_26591" data-name="Path 26591" d="M173.509,429.466c1.74,3.883,6.454,12.947,15.853,10.067l-.867-3.495q-.208.116-.428.222c-7.92,3.768-13.893-5.482-14.737-7.616a.718.718,0,0,1-.1.14Z" transform="translate(-142.166 -355.358)" fill="#2f2e31"/>
        <path id="Path_26592" data-name="Path 26592" d="M213.274,436.571a3.608,3.608,0,0,1-7.151.861Z" transform="translate(-167.325 -361.387)" fill="#fff"/>
        <path id="Path_26593" data-name="Path 26593" d="M218.167,405.913a.357.357,0,0,1-.042-.711l3.023-.363-2.4-6.759a.358.358,0,0,1,.676-.238l2.553,7.18a.357.357,0,0,1-.3.474l-3.468.416-.043,0" transform="translate(-176.226 -331.662)" fill="#2f2e31"/>
        <path id="Path_26594" data-name="Path 26594" d="M640.5,195.353l5.146-.842-.538,2.142Z" transform="translate(-498.243 -176.597)" fill="#ffb92c"/>
        <path id="Path_26595" data-name="Path 26595" d="M565.446,185.557l-4.39-2.3,1.063,2.3Z" transform="translate(-437.719 -168.025)" fill="#ffb92c"/>
        <path id="Path_26596" data-name="Path 26596" d="M609.642,162.459l.538-4.59,1.459,1.224Z" transform="translate(-474.728 -148.676)" fill="#ffb92c"/>
        <path id="Path_26597" data-name="Path 26597" d="M271.831,699.336H68.5a.357.357,0,1,1,0-.714h203.33a.357.357,0,1,1,0,.714" transform="translate(-62.188 -561.336)" fill="#345776"/>
        <path id="Path_26598" data-name="Path 26598" d="M120.023,217.368l-1.141-13.527a1.144,1.144,0,1,1,2.282,0Z" transform="translate(-100.799 -182.764)" fill="#ffb92c"/>
        <path id="Path_26599" data-name="Path 26599" d="M120.023,271.135l1.141,13.527a1.144,1.144,0,1,1-2.282,0Z" transform="translate(-100.799 -235.163)" fill="#ffb92c"/>
        <path id="Path_26600" data-name="Path 26600" d="M126.923,263.307l13.58-1.136a1.141,1.141,0,1,1,0,2.273Z" transform="translate(-106.922 -228.303)" fill="#ffb92c"/>
        <path id="Path_26601" data-name="Path 26601" d="M73.214,263.307l-13.58,1.136a1.141,1.141,0,1,1,0-2.273Z" transform="translate(-54.768 -228.303)" fill="#ffb92c"/>
        <path id="Path_26602" data-name="Path 26602" d="M126.073,232.343l9.263-9.957a1.142,1.142,0,1,1,1.538,1.679Z" transform="translate(-106.275 -197.676)" fill="#ffb92c"/>
        <path id="Path_26603" data-name="Path 26603" d="M85.444,269.774l-9.263,9.957a1.143,1.143,0,1,1-1.538-1.679Z" transform="translate(-66.794 -234.118)" fill="#ffb92c"/>
        <path id="Path_26604" data-name="Path 26604" d="M126.545,269.361l10,9.227a1.143,1.143,0,1,1-1.686,1.532Z" transform="translate(-106.634 -233.804)" fill="#ffb92c"/>
        <path id="Path_26605" data-name="Path 26605" d="M89.155,228.688l-10-9.227a1.143,1.143,0,1,1,1.686-1.532Z" transform="translate(-70.292 -194.215)" fill="#ffb92c"/>
        <path id="Path_26606" data-name="Path 26606" d="M727.535,251.2l-.541-6.419a.543.543,0,1,1,1.083,0Z" transform="translate(-564.125 -214.594)" fill="#ffb92c"/>
        <path id="Path_26607" data-name="Path 26607" d="M727.535,276.713l.542,6.419a.543.543,0,1,1-1.083,0Z" transform="translate(-564.125 -239.409)" fill="#ffb92c"/>
        <path id="Path_26608" data-name="Path 26608" d="M730.81,273l6.444-.539a.541.541,0,1,1,0,1.079Z" transform="translate(-567.049 -236.154)" fill="#ffb92c"/>
        <path id="Path_26609" data-name="Path 26609" d="M705.324,273l-6.444.539a.541.541,0,1,1,0-1.079Z" transform="translate(-542.275 -236.154)" fill="#ffb92c"/>
        <path id="Path_26610" data-name="Path 26610" d="M730.406,258.306l4.4-4.725a.542.542,0,1,1,.73.8Z" transform="translate(-566.737 -221.622)" fill="#ffb92c"/>
        <path id="Path_26611" data-name="Path 26611" d="M711.127,276.067l-4.4,4.725a.542.542,0,1,1-.73-.8Z" transform="translate(-547.983 -238.913)" fill="#ffb92c"/>
        <path id="Path_26612" data-name="Path 26612" d="M730.63,275.871l4.743,4.378a.542.542,0,1,1-.8.727Z" transform="translate(-566.906 -238.764)" fill="#ffb92c"/>
        <path id="Path_26613" data-name="Path 26613" d="M712.888,256.571l-4.743-4.378a.542.542,0,1,1,.8-.727Z" transform="translate(-549.644 -219.98)" fill="#ffb92c"/>
        <path id="Path_26614" data-name="Path 26614" d="M780.84,390.192l-.541-6.419a.543.543,0,1,1,1.083,0Z" transform="translate(-604.84 -320.659)" fill="red"/>
        <path id="Path_26615" data-name="Path 26615" d="M780.84,415.706l.542,6.419a.543.543,0,1,1-1.083,0Z" transform="translate(-604.84 -345.474)" fill="red"/>
        <path id="Path_26616" data-name="Path 26616" d="M784.115,411.991l6.444-.539a.541.541,0,1,1,0,1.079Z" transform="translate(-607.746 -342.212)" fill="red"/>
        <path id="Path_26617" data-name="Path 26617" d="M758.629,411.991l-6.444.539a.541.541,0,1,1,0-1.079Z" transform="translate(-582.998 -342.212)" fill="red"/>
        <path id="Path_26618" data-name="Path 26618" d="M783.711,397.3l4.4-4.725a.542.542,0,1,1,.73.8Z" transform="translate(-607.439 -327.685)" fill="red"/>
        <path id="Path_26619" data-name="Path 26619" d="M764.432,415.06l-4.4,4.725a.542.542,0,1,1-.73-.8Z" transform="translate(-588.705 -344.975)" fill="red"/>
        <path id="Path_26620" data-name="Path 26620" d="M783.935,414.865l4.743,4.378a.542.542,0,1,1-.8.727Z" transform="translate(-607.609 -344.828)" fill="red"/>
        <path id="Path_26621" data-name="Path 26621" d="M766.193,395.564l-4.743-4.378a.542.542,0,1,1,.8-.727Z" transform="translate(-590.364 -326.043)" fill="red"/>
        <path id="Path_26622" data-name="Path 26622" d="M818.511,132.592l-1.031-12.227a1.035,1.035,0,1,1,2.063,0Z" transform="translate(-633.136 -119.248)" fill="#ffb92c"/>
        <path id="Path_26623" data-name="Path 26623" d="M818.511,181.193l1.031,12.227a1.035,1.035,0,1,1-2.063,0Z" transform="translate(-633.136 -166.449)" fill="#ffb92c"/>
        <path id="Path_26624" data-name="Path 26624" d="M824.75,174.117l12.275-1.027a1.031,1.031,0,1,1,0,2.055Z" transform="translate(-638.671 -160.271)" fill="#ffb92c"/>
        <path id="Path_26625" data-name="Path 26625" d="M776.2,174.117l-12.275,1.027a1.031,1.031,0,1,1,0-2.055Z" transform="translate(-591.527 -160.271)" fill="#ffb92c"/>
        <path id="Path_26626" data-name="Path 26626" d="M823.981,146.129l8.373-9a1.033,1.033,0,1,1,1.39,1.518Z" transform="translate(-638.086 -132.621)" fill="#ffb92c"/>
        <path id="Path_26627" data-name="Path 26627" d="M787.256,179.962l-8.373,9a1.033,1.033,0,1,1-1.39-1.518Z" transform="translate(-602.4 -165.511)" fill="#ffb92c"/>
        <path id="Path_26628" data-name="Path 26628" d="M824.408,179.59l9.035,8.34a1.033,1.033,0,1,1-1.524,1.385Z" transform="translate(-638.411 -165.227)" fill="#ffb92c"/>
        <path id="Path_26629" data-name="Path 26629" d="M790.611,142.825l-9.035-8.34A1.033,1.033,0,1,1,783.1,133.1Z" transform="translate(-605.561 -129.497)" fill="#ffb92c"/>
        <path id="Path_26630" data-name="Path 26630" d="M258.071,170.542l-.541-6.419a.543.543,0,1,1,1.083,0Z" transform="translate(-206.482 -152.995)" fill="red"/>
        <path id="Path_26631" data-name="Path 26631" d="M258.071,196.056l.542,6.419a.543.543,0,1,1-1.083,0Z" transform="translate(-206.482 -177.774)" fill="#ffb92c"/>
        <path id="Path_26632" data-name="Path 26632" d="M261.346,192.34l6.444-.539a.541.541,0,1,1,0,1.079Z" transform="translate(-209.396 -174.53)" fill="red"/>
        <path id="Path_26633" data-name="Path 26633" d="M235.86,192.34l-6.444.539a.541.541,0,1,1,0-1.079Z" transform="translate(-184.622 -174.53)" fill="red"/>
        <path id="Path_26634" data-name="Path 26634" d="M260.943,177.648l4.4-4.725a.542.542,0,1,1,.73.8Z" transform="translate(-209.087 -160.015)" fill="red"/>
        <path id="Path_26635" data-name="Path 26635" d="M241.663,195.409l-4.4,4.725a.542.542,0,1,1-.73-.8Z" transform="translate(-190.333 -177.281)" fill="red"/>
        <path id="Path_26636" data-name="Path 26636" d="M261.167,195.214l4.743,4.378a.542.542,0,1,1-.8.727Z" transform="translate(-209.258 -177.133)" fill="red"/>
        <path id="Path_26637" data-name="Path 26637" d="M243.424,175.914l-4.743-4.378a.542.542,0,1,1,.8-.727Z" transform="translate(-191.995 -158.375)" fill="red"/>
        <path id="Path_26638" data-name="Path 26638" d="M72.465,407.047l-.541-6.419a.543.543,0,1,1,1.083,0Z" transform="translate(-65.064 -333.521)" fill="#ffb92c"/>
        <path id="Path_26639" data-name="Path 26639" d="M72.465,432.561l.541,6.419a.543.543,0,1,1-1.083,0Z" transform="translate(-65.064 -358.336)" fill="#ffb92c"/>
        <path id="Path_26640" data-name="Path 26640" d="M75.74,428.845l6.444-.539a.541.541,0,1,1,0,1.079Z" transform="translate(-67.969 -355.072)" fill="#ffb92c"/>
        <path id="Path_26641" data-name="Path 26641" d="M50.254,428.845l-6.444.539a.541.541,0,1,1,0-1.079Z" transform="translate(-43.221 -355.072)" fill="#ffb92c"/>
        <path id="Path_26642" data-name="Path 26642" d="M75.337,414.153l4.4-4.725a.542.542,0,1,1,.73.8Z" transform="translate(-67.663 -340.546)" fill="#ffb92c"/>
        <path id="Path_26643" data-name="Path 26643" d="M56.057,431.914l-4.4,4.725a.542.542,0,1,1-.73-.8Z" transform="translate(-48.928 -357.836)" fill="#ffb92c"/>
        <path id="Path_26644" data-name="Path 26644" d="M75.561,431.719,80.3,436.1a.542.542,0,1,1-.8.727Z" transform="translate(-67.833 -357.689)" fill="#ffb92c"/>
        <path id="Path_26645" data-name="Path 26645" d="M57.818,412.419l-4.743-4.378a.542.542,0,1,1,.8-.727Z" transform="translate(-50.588 -338.905)" fill="#ffb92c"/>
      </g>
    </g>
  </g>
</svg>
