<svg xmlns="http://www.w3.org/2000/svg" xmlns:xlink="http://www.w3.org/1999/xlink" width="197.601" height="64.282" viewBox="0 0 197.601 64.282">
  <defs>
    <clipPath id="clip-path">
      <rect id="Rectangle_1676" data-name="Rectangle 1676" width="197.601" height="64.282" fill="none"/>
    </clipPath>
    <clipPath id="clip-path-3">
      <rect id="Rectangle_1674" data-name="Rectangle 1674" width="119.606" height="19.364" fill="none"/>
    </clipPath>
  </defs>
  <g id="Group_35705" data-name="Group 35705" transform="translate(0)">
    <g id="Group_35704" data-name="Group 35704" transform="translate(0)" clip-path="url(#clip-path)">
      <g id="Group_35703" data-name="Group 35703" transform="translate(0 0)">
        <g id="Group_35702" data-name="Group 35702" clip-path="url(#clip-path)">
          <path id="Path_5523" data-name="Path 5523" d="M59.487,24.751A2.718,2.718,0,0,1,56.95,22.98c-.236-.637-.5-1.273-.785-1.89a2.723,2.723,0,0,1,.538-3.06,4.8,4.8,0,0,0,0-6.782L53.034,7.579a4.8,4.8,0,0,0-6.785,0,2.722,2.722,0,0,1-3.057.535c-.621-.287-1.257-.55-1.89-.785A2.72,2.72,0,0,1,39.531,4.8a4.8,4.8,0,0,0-4.8-4.8H29.548a4.8,4.8,0,0,0-4.8,4.8A2.721,2.721,0,0,1,22.98,7.332c-.634.234-1.27.5-1.89.785a2.721,2.721,0,0,1-3.06-.538,4.8,4.8,0,0,0-6.782,0L7.581,11.248a4.8,4.8,0,0,0,0,6.783,2.725,2.725,0,0,1,.536,3.059c-.287.619-.55,1.254-.786,1.89A2.718,2.718,0,0,1,4.8,24.751a4.8,4.8,0,0,0-4.8,4.8v5.188a4.8,4.8,0,0,0,4.8,4.8A2.718,2.718,0,0,1,7.332,41.3c.236.634.5,1.27.786,1.89a2.726,2.726,0,0,1-.538,3.06,4.8,4.8,0,0,0,0,6.78L11.248,56.7a4.8,4.8,0,0,0,6.785,0,2.72,2.72,0,0,1,3.057-.536c.617.285,1.254.55,1.89.786a2.719,2.719,0,0,1,1.772,2.537,4.8,4.8,0,0,0,4.8,4.8h5.187a4.8,4.8,0,0,0,4.8-4.8A2.718,2.718,0,0,1,41.3,56.95c.633-.236,1.268-.5,1.89-.786a2.726,2.726,0,0,1,3.06.538,4.8,4.8,0,0,0,6.782,0L56.7,53.033a4.794,4.794,0,0,0,0-6.783,2.724,2.724,0,0,1-.535-3.059c.284-.616.549-1.251.785-1.888a2.719,2.719,0,0,1,2.537-1.772,4.8,4.8,0,0,0,4.8-4.8V29.546a4.8,4.8,0,0,0-4.8-4.8m2.71,9.984a2.713,2.713,0,0,1-2.71,2.71,4.814,4.814,0,0,0-4.493,3.133c-.217.587-.46,1.172-.722,1.739a4.818,4.818,0,0,0,.956,5.41,2.708,2.708,0,0,1,0,3.832L51.56,55.227a2.714,2.714,0,0,1-3.835,0,4.816,4.816,0,0,0-5.407-.953c-.572.262-1.158.507-1.741.722a4.815,4.815,0,0,0-3.133,4.493,2.712,2.712,0,0,1-2.71,2.71H29.548a2.714,2.714,0,0,1-2.71-2.711A4.812,4.812,0,0,0,23.7,54.993c-.585-.217-1.17-.46-1.739-.724a4.82,4.82,0,0,0-5.41.958,2.713,2.713,0,0,1-3.834,0L9.055,51.558a2.711,2.711,0,0,1,0-3.834,4.817,4.817,0,0,0,.953-5.408c-.262-.57-.507-1.156-.722-1.739A4.813,4.813,0,0,0,4.8,37.444a2.713,2.713,0,0,1-2.71-2.71V29.546a2.713,2.713,0,0,1,2.71-2.71A4.815,4.815,0,0,0,9.289,23.7c.216-.585.46-1.169.722-1.739a4.818,4.818,0,0,0-.956-5.411,2.712,2.712,0,0,1,0-3.832l3.668-3.669a2.715,2.715,0,0,1,3.835,0,4.816,4.816,0,0,0,5.407.955c.572-.264,1.158-.507,1.741-.724A4.812,4.812,0,0,0,26.838,4.8a2.713,2.713,0,0,1,2.71-2.71h5.187a2.712,2.712,0,0,1,2.71,2.71,4.814,4.814,0,0,0,3.133,4.492c.583.217,1.169.46,1.739.724a4.818,4.818,0,0,0,5.411-.958,2.713,2.713,0,0,1,3.832,0l3.668,3.669a2.708,2.708,0,0,1,0,3.835,4.818,4.818,0,0,0-.953,5.407c.262.569.505,1.155.722,1.741a4.815,4.815,0,0,0,4.493,3.131,2.713,2.713,0,0,1,2.71,2.71Z" transform="translate(0 0)" fill="#fe0000"/>
          <path id="Path_5524" data-name="Path 5524" d="M45.873,24.179c-.323-.4-.62-.769-.917-1.1l-1.9-2.019a4.879,4.879,0,0,0-3.473-1.439,5.03,5.03,0,0,0-.64.045,4.94,4.94,0,0,0-1.412-4.133l-2.018-1.9c-.312-.278-.68-.573-1.083-.9A16.816,16.816,0,0,1,30.2,8.279l-.9-1.51-.9,1.51a16.775,16.775,0,0,1-4.231,4.459c-.4.325-.769.621-1.1.918l-2.019,1.9a4.9,4.9,0,0,0-1.39,4.113,4.937,4.937,0,0,0-4.134,1.412l-1.9,2.017c-.277.312-.573.68-.9,1.081A16.8,16.8,0,0,1,8.279,28.41l-1.51.9,1.51.9a16.764,16.764,0,0,1,4.461,4.232c.323.4.62.768.917,1.1l1.9,2.018a4.89,4.89,0,0,0,3.473,1.437,5.089,5.089,0,0,0,.64-.047A4.933,4.933,0,0,0,21.08,43.08l2.017,1.9c.312.278.68.575,1.081.9a16.8,16.8,0,0,1,4.231,4.461l.9,1.51.9-1.508a16.809,16.809,0,0,1,4.229-4.462c.4-.323.77-.62,1.1-.917l2.019-1.9a4.9,4.9,0,0,0,1.39-4.109,5.009,5.009,0,0,0,.638.045,4.9,4.9,0,0,0,3.5-1.461l1.9-2.018c.277-.312.573-.68.9-1.081A16.761,16.761,0,0,1,50.334,30.2l1.51-.9-1.51-.9a16.8,16.8,0,0,1-4.461-4.231m-10.261,4.98a6.261,6.261,0,0,1-1.227,3.721L32.805,31.3a2.816,2.816,0,0,1,0-3.987l1.707-1.707a6.263,6.263,0,0,1,1.1,3.553m-12.6,0a6.256,6.256,0,0,1,1.1-3.547l1.7,1.7a2.816,2.816,0,0,1,0,3.987l-1.575,1.575a6.257,6.257,0,0,1-1.223-3.716M31.3,25.808a2.814,2.814,0,0,1-3.985,0l-1.724-1.724a6.256,6.256,0,0,1,7.437,0Zm-1.359,2.869a5.08,5.08,0,0,0-.045.688,5.17,5.17,0,0,0,.044.572,4.828,4.828,0,0,0-.626-.044H29.3a4.828,4.828,0,0,0-.626.044,5.143,5.143,0,0,0,.044-.572,5.08,5.08,0,0,0-.045-.688,4.85,4.85,0,0,0,.627.044h.011a5.116,5.116,0,0,0,.627-.044m-2.626,4.129a2.816,2.816,0,0,1,3.987,0l1.558,1.559a6.281,6.281,0,0,1-7.1,0Zm-4.8-15.753L24.482,15.2c.291-.257.631-.532,1-.831a21.671,21.671,0,0,0,3.819-3.7,21.668,21.668,0,0,0,3.818,3.7c.373.3.715.575.983.812l1.974,1.854a2.831,2.831,0,0,1,0,4l-1.566,1.565A8.345,8.345,0,0,0,24.1,22.6l-1.571-1.571a2.822,2.822,0,0,1-.023-3.974M17.052,36.1,15.2,34.13c-.257-.289-.531-.63-.83-1a21.65,21.65,0,0,0-3.7-3.821,21.634,21.634,0,0,0,3.7-3.819c.3-.373.575-.714.812-.982l1.854-1.974a2.831,2.831,0,0,1,4,0l1.592,1.592a8.335,8.335,0,0,0,.126,10.239l-1.718,1.718a2.824,2.824,0,0,1-3.974.023M36.1,41.56l-1.975,1.857c-.289.257-.631.531-1,.831a21.634,21.634,0,0,0-3.819,3.7,21.634,21.634,0,0,0-3.819-3.7c-.373-.3-.714-.575-.982-.813l-1.974-1.853a2.828,2.828,0,0,1,0-4l1.739-1.739a8.323,8.323,0,0,0,10.075,0l1.735,1.735A2.824,2.824,0,0,1,36.1,41.56m8.144-8.433c-.3.373-.573.714-.81.98l-1.854,1.974a2.828,2.828,0,0,1-4,0l-1.712-1.712A8.335,8.335,0,0,0,36,24.118l1.586-1.586a2.828,2.828,0,0,1,3.974-.023l1.857,1.975c.257.289.531.63.831,1a21.671,21.671,0,0,0,3.7,3.819,21.588,21.588,0,0,0-3.7,3.821" transform="translate(2.835 2.834)" fill="#fe0000"/>
          <path id="Path_5525" data-name="Path 5525" d="M69.4,22.049H59.688l-1.59,3.5H54.3l8.33-18.568h3.819l8.33,18.568H70.963ZM64.543,10.881l-3.449,7.905h6.9Z" transform="translate(22.741 2.924)" fill="#fff"/>
          <rect id="Rectangle_1673" data-name="Rectangle 1673" width="3.475" height="18.569" transform="translate(105.11 9.904)" fill="#fff"/>
          <path id="Path_5526" data-name="Path 5526" d="M99.527,23.325a9.611,9.611,0,0,1-7.056,2.758,11.414,11.414,0,0,1-4.431-.809A7.974,7.974,0,0,1,84.95,23.1a9.538,9.538,0,0,1-1.737-3.038,10.672,10.672,0,0,1-.585-3.554,10.852,10.852,0,0,1,.6-3.581A9.8,9.8,0,0,1,85,9.8,8.234,8.234,0,0,1,88.12,7.556a10.873,10.873,0,0,1,4.351-.836,9.414,9.414,0,0,1,6.817,2.838l-2.335,2.256a6.122,6.122,0,0,0-4.482-1.751A5.94,5.94,0,0,0,87.7,11.985a6.633,6.633,0,0,0-1.617,4.523A6.679,6.679,0,0,0,87.7,20.952a5.968,5.968,0,0,0,4.776,1.843,6.861,6.861,0,0,0,2.507-.491,6.162,6.162,0,0,0,2.161-1.392Z" transform="translate(34.603 2.814)" fill="#fff"/>
          <path id="Path_5527" data-name="Path 5527" d="M103.706,20.092v5.465h-3.5V6.989q1.458,0,4.377-.013t4.377-.013a7.79,7.79,0,0,1,2.693.45,5.939,5.939,0,0,1,2.042,1.207,7.269,7.269,0,0,1,1.366,1.738,5.311,5.311,0,0,1,.677,2.056,9.839,9.839,0,0,1,0,2.162,5.435,5.435,0,0,1-.677,2.081,7.359,7.359,0,0,1-1.352,1.751,5.943,5.943,0,0,1-2.03,1.22,7.661,7.661,0,0,1-2.718.464Zm0-3.209h5.252a3.15,3.15,0,0,0,2.493-1.022,3.293,3.293,0,0,0,.89-2.269,3.443,3.443,0,0,0-.9-2.267,3.113,3.113,0,0,0-2.48-1.022h-5.252Z" transform="translate(41.963 2.916)" fill="#fff"/>
          <g id="Group_35701" data-name="Group 35701" transform="translate(77.995 34.56)" opacity="0.2">
            <g id="Group_35700" data-name="Group 35700">
              <g id="Group_35699" data-name="Group 35699" clip-path="url(#clip-path-3)">
                <path id="Path_5528" data-name="Path 5528" d="M92.879,24.359a9.372,9.372,0,0,0-6.87,2.733,9.5,9.5,0,0,0-2.758,7.056,10.834,10.834,0,0,0,.583,3.568,9.649,9.649,0,0,0,1.724,3.05,7.829,7.829,0,0,0,3.011,2.162,10.737,10.737,0,0,0,4.231.8,10.321,10.321,0,0,0,4.218-.823A7.962,7.962,0,0,0,100,40.713a9.808,9.808,0,0,0,1.71-3.05,11.194,11.194,0,0,0,.61-3.541,10.265,10.265,0,0,0-.57-3.568,10.1,10.1,0,0,0-1.737-3.1,8.085,8.085,0,0,0-3-2.227,10.267,10.267,0,0,0-4.139-.863m65.254.345V43.3h3.5V37.093h3.554l5.384,6.207h4.005v-.24l-5.623-6.339a5.464,5.464,0,0,0,3.581-2.11,6.375,6.375,0,0,0,1.114-3.727,5.928,5.928,0,0,0-1.778-4.337,6.686,6.686,0,0,0-4.906-1.816q-1.485,0-4.431-.013t-4.4-.014m-34.085.027H108.769v3.184h5.888V43.3h3.5V27.914h5.889V24.731m-49.419.027H70.624l-5.808,7.983-5.81-7.983H54.973V43.325h3.5v-13.5l5.915,8.09h.69l6.048-8.063V43.325h3.5V24.758m87.007,9.178V27.994h5.332a3.08,3.08,0,0,1,2.361.875,2.953,2.953,0,0,1,.821,2.1,2.983,2.983,0,0,1-.809,2.1,3.075,3.075,0,0,1-2.374.875h-5.332M92.8,40.513a5.467,5.467,0,0,1-4.522-1.856A7.236,7.236,0,0,1,86.7,34.2,6.621,6.621,0,0,1,88.3,29.452a5.784,5.784,0,0,1,4.574-1.91,5.484,5.484,0,0,1,4.51,2.042,7.047,7.047,0,0,1,1.485,4.59,7.164,7.164,0,0,1-1.552,4.469,5.447,5.447,0,0,1-4.523,1.87m47.217,0a5.468,5.468,0,0,1-4.523-1.856,7.243,7.243,0,0,1-1.578-4.456,6.614,6.614,0,0,1,1.6-4.749,5.785,5.785,0,0,1,4.576-1.91,5.488,5.488,0,0,1,4.51,2.042,7.062,7.062,0,0,1,1.485,4.59,7.18,7.18,0,0,1-1.552,4.469,5.449,5.449,0,0,1-4.523,1.87m.079-16.154a9.37,9.37,0,0,0-6.87,2.733,9.5,9.5,0,0,0-2.76,7.056,10.834,10.834,0,0,0,.583,3.568,9.681,9.681,0,0,0,1.725,3.05,7.818,7.818,0,0,0,3.011,2.162,10.727,10.727,0,0,0,4.231.8,10.33,10.33,0,0,0,4.218-.823,7.968,7.968,0,0,0,2.984-2.188,9.783,9.783,0,0,0,1.711-3.05,11.274,11.274,0,0,0,.61-3.541,10.332,10.332,0,0,0-.57-3.568,10.1,10.1,0,0,0-1.738-3.1,8.091,8.091,0,0,0-3-2.227,10.278,10.278,0,0,0-4.139-.863" transform="translate(-54.973 -24.359)" fill="#fff"/>
              </g>
            </g>
          </g>
        </g>
      </g>
    </g>
  </g>
</svg>
